<?xml version="1.0" encoding="utf-8"?>
<!-- Generator: Adobe Illustrator 23.0.2, SVG Export Plug-In . SVG Version: 6.00 Build 0)  -->
<svg version="1.1" id="Logo" xmlns="http://www.w3.org/2000/svg" xmlns:xlink="http://www.w3.org/1999/xlink" x="0px" y="0px"
	 viewBox="0 0 720 251" style="enable-background:new 0 0 720 251;" xml:space="preserve">
<style type="text/css">
	.st0{fill:#FFFFFF;}
</style>
<g>
	<path class="st0" d="M121.78,72.43c-0.13-0.58-0.24-1.19-0.41-1.76c-0.2-0.6-0.24-0.98-0.7-2.02c-0.82-1.74-2.02-2.85-3.17-3.71
		c-2.34-1.67-4.68-2.39-6.97-2.9c-2.29-0.48-4.56-0.63-6.79-0.6c-8.9,0.23-17.31,3.54-24.27,8.46
		c-6.81,4.76-12.84,10.43-18.11,16.84c-2.6,3.24-5.02,6.64-7,10.63c-0.48,1.02-0.94,2.07-1.32,3.24c-0.36,1.2-0.7,2.47-0.65,4.24
		c0.02,0.23,0.05,0.48,0.08,0.72c0.03,0.24,0.06,0.47,0.15,0.76c0.08,0.27,0.16,0.55,0.26,0.81l0.23,0.5
		c0.29,0.66,0.69,1.29,1.12,1.91c0.91,1.21,2.11,2.24,3.4,2.95c1.31,0.72,2.66,1.08,3.96,1.31c1.3,0.19,2.56,0.22,3.75,0.13
		c0.52-0.04,1.02-0.1,1.52-0.17c-1.23,1.31-2.45,2.62-3.67,3.94c-5.27,5.71-10.55,11.4-15.78,17.16
		c-5.23,5.76-10.41,11.58-15.49,17.52c-0.17,0.19-0.18,0.48-0.02,0.69c0.19,0.24,0.53,0.28,0.77,0.1
		c6.18-4.81,12.14-9.85,17.98-15.03c5.83-5.18,11.53-10.52,17.15-15.93c5.64-5.4,10.99-11.09,16.01-17.08
		c1.41-1.69,2.8-3.4,4.15-5.14c1.08-1.21,2.12-2.45,3.1-3.74c2.4-3.22,4.6-6.6,6.21-10.42c0.01-0.01,0.02-0.03,0.02-0.04l0,0h0l0,0
		c-0.02,0.01-0.04,0.03-0.06,0.04c-7,4.34-12.69,9.7-18.48,14.68c-0.73,0.62-1.46,1.22-2.21,1.78c-0.74,0.59-1.49,1.11-2.23,1.61
		c-0.37,0.28-0.74,0.49-1.11,0.7c-0.36,0.2-0.74,0.47-1.08,0.6c-0.33,0.14-0.66,0.28-0.99,0.43l-1.26,0.41
		c-1.69,0.5-3.39,0.84-4.95,0.89c-0.78,0.03-1.51-0.02-2.16-0.14c-0.63-0.14-1.21-0.32-1.63-0.59c-0.42-0.27-0.73-0.57-1-0.95
		c-0.12-0.21-0.25-0.41-0.34-0.67l-0.02-0.03c0,0,0,0,0,0c0.01-0.01,0,0,0-0.02c0-0.22,0.13-0.89,0.37-1.58
		c0.25-0.7,0.59-1.47,0.97-2.23c1.6-3.08,3.84-6.14,6.25-9c4.84-5.76,10.51-10.95,16.64-15.29c2.99-2.12,6.16-3.82,9.53-5.03
		c3.35-1.22,6.88-1.93,10.33-2.03c1.72-0.03,3.43,0.08,5.01,0.4c1.56,0.32,3.06,0.87,3.95,1.52c0.44,0.31,0.7,0.63,0.71,0.7
		c-0.04-0.14,0.15,0.45,0.25,0.79c0.12,0.38,0.17,0.75,0.27,1.13c0.3,1.49,0.28,3.02,0.08,4.57c-0.5,3.12-1.98,6.3-3.93,9.31
		c-0.93,1.53-2.11,2.96-3.18,4.46c-1.21,1.42-2.33,2.93-3.6,4.35c-4.97,5.8-10.76,11.07-16.16,17.17
		c7.64-2.84,14.52-7.15,20.85-12.44c0.81-0.64,1.56-1.36,2.3-2.09c0.75-0.73,1.5-1.44,2.22-2.21c1.38-1.6,2.78-3.18,3.95-5.01
		c2.42-3.55,4.46-7.66,5.24-12.37C122.22,77.31,122.25,74.83,121.78,72.43z M59.75,104.41c0.03,0.03,0.04,0.06,0.05,0.1
		c0,0.01,0,0.01,0,0.01L59.75,104.41z"/>
	<g>
		<path class="st0" d="M674.46,148.29c0.15,0.05,0.62,0.08,1.69,0.09L674.46,148.29z"/>
		<path class="st0" d="M142.96,200.41c-0.59,0.19-1.1,0.37-1.36,0.52C142.45,200.68,142.83,200.52,142.96,200.41z"/>
		<path class="st0" d="M238.09,169.56c-0.03,0.07-0.05,0.12-0.04,0.16C238.19,169.66,238.23,169.6,238.09,169.56z"/>
		<path class="st0" d="M656.42,147.39c0.26,0.03,0.52,0.06,0.77,0.09C657.35,147.36,656.62,147.32,656.42,147.39z"/>
		<path class="st0" d="M118.03,206.22c-0.07,0.06-0.13,0.13-0.16,0.19C117.97,206.33,118.01,206.28,118.03,206.22z"/>
		<path class="st0" d="M595.49,142.32c-0.23,0.02-0.48,0.03-0.72,0.04C595.03,142.37,595.28,142.36,595.49,142.32z"/>
		<path class="st0" d="M259.71,177.04c0.34-0.12,0.52-0.21,0.61-0.28C259.94,176.86,259.66,176.96,259.71,177.04z"/>
		<path class="st0" d="M677.63,151.22c1.66-0.08,4.65-0.21,4.88-0.39c-2.44,0.19-2.61-0.61-5.17-0.33c0.23-0.17,0.69-0.52,2-0.34
			c-2.07-0.55-4.16-0.62-5.01-1.14c1.74,0.47,2.91,0.04,3.29-0.01c-1.57-0.24-4.74-0.32-5.81-0.2c-0.17-0.77-5.63-0.31-4.26-0.86
			c-0.7,0.15-2.59,0.03-3.65-0.2c0.13-0.33,3.22-0.33,4.57-0.65c6.2,0.03-0.15,0.57,1.28,0.91l4.71,0.26
			c-0.47-0.14,1.92-0.42-1.15-0.58c1.46-0.39,4.45-0.53,6.85,0.01c0.57-0.19-1.2-0.27-1.74-0.32c0.56-0.19,3.59-0.81-0.26-1.2
			c1.1,0.11-1.9,0.25,0.07,0.64c-1.55-0.01-5.72-0.63-4.03-0.95c-1.89,0.03-5.43,0.07-6.98,0.09c-0.42-0.38,1.33-0.07,2.12-0.19
			l-5.43-0.12l1.52,0.48c-3.95-0.52-6.54,0.27-9.75,0.36c0.47-0.59,3.12-0.49,5.23-0.68c-1.96-0.87-1.34,0.31-4.65,0
			c-0.44-0.14-0.54-0.3-0.32-0.47l-2.67,0.4c-0.64-0.1-0.44-0.19-0.16-0.23c-4.26,0.43,0.15,0.87-5.84,0.83
			c3.63,0.51,3.12-0.27,6.19-0.05c1.75,0.54-3.56,0.62-4.46,0.83c-2.96-0.3-3.25-1.25-7.03-0.95c2.66-0.16,0.14-0.58,3.89-0.4
			c2.11-0.21-1.09-0.34-1.51-0.72c-1,0.06,0.63,0.69-2.12,0.45l0.11-0.09l-4.54,0.45c-4.19-0.52-9.51,0.33-12.35-0.52l0.64,0.68
			c-2.64-0.07-6.4-0.19-8.27-0.12c0.45-0.36,2.22-0.33,4.09-0.4c-4.75-0.28-8.94-0.04-12.15,0.38c2.31,0.55,2.64,0.53,4.83,0.92
			c-3.11,0.81-3.63-0.69-7.61-0.38c-0.09-0.64,1.23-0.5,0.26-1.15c-1.66,0.37-4.42,0.2-6.31,0.53c-0.98-0.64,0.79-1.13,4.88-1.06
			c3.08,0.65,6.52-0.18,9.05,0.43l-1.53-0.45c3.1-0.08,4.97,0.1,7.62-0.1l-0.11,0.09l1.35-0.59l-1.43-0.05c1-0.33,4-0.78,4.89-0.76
			c-4.43-0.11-4.78,0.92-6.9,1.4c-3.97-0.18-5.49-1.36-8.16-0.91c-0.21-0.31-2.41-0.71-0.63-0.92c2.21-0.09,3.75,0.36,3.98-0.07
			c-2.32-0.06-1.43-0.29-4.96-0.34c-0.69,0.55-3.34,0.97-5.88,1.36c-2.66,0.23-6.09,0.12-8.19-0.11c2.65,0.02,5.32-0.46,4.66-0.89
			c-1.56,0.54-5.18-0.6-4.42,0.22c-3.09-0.14-8.29-0.26-8.61-0.95c2.93-0.18,5.75,0.32,8.23,0.23c-0.68-0.03-1.35-0.23-0.94-0.38
			l3.65,0.17c-2.75-0.41-2.2-0.62-5.74-0.64c0.22,0.06,0.66,0.19,0.33,0.21c-0.88-0.02-1.99-0.05-2.88-0.07l-0.09-0.64
			c-2.65,0.21-7.74-0.65-12.6-0.27l0.44-0.12c-3.87-0.2-4.21,1.05-8.41,1.13c1.22-0.28,0.67-0.55,0.45-0.86
			c-2.1,0.28-3.21-0.23-5.31-0.42c2.44,0.39-1.65,0.66,0.11,0.88c0.11,0.64-4.21,0.61-6.42,0.52c-1.32-0.83,6.86-0.41,3.54-1.27
			c-2.21-0.09-2.76,0.37-1.21,0.53c-2.76-0.11-6.97-0.23-8.96-0.75c-3.31,0.59-4.63,0.27-6.73,1.08c1.77-0.04,1.87-0.63,4.09-0.31
			l-2.43,0.6c-3.2,0.05-5.75-0.46-7.96-0.53l2.32-0.27l-0.11,0.1c0.88-0.27,3.87-0.13,3.53-0.58c-2.1,0.57-3.76,0.03-6.52,0.44
			l0.11-0.1c-4.86,0.5-8.42-0.9-11.49,0.31c0.88-0.04,2.66,0.4,2.11,0.63c-1.12-0.28-4.09-0.13-3.99-0.47l1-0.13
			c-2.76-0.05-4.43-0.08-5.42,0.05c-0.76,0.42,0.03,0.73-1.96,0.99c-4.87-0.19,1.96-0.99-1.36-1.29l-4.53,0.5l-1.01-0.36
			c-6.75-0.3-11.91,1.16-19.09,1.33c-0.13-0.63,5.05-1.04,6.82-1.12c-2.23-0.5-5.41,0.35-8.4,0.04c-2.77-0.02-4.85,0.6-4.39,0.95
			c-3.41,0.33-2.45-0.29-2.89-0.39c-1.09,0.74-5.4,0.66-8.15,0.92l-0.14-0.39l-4.28,0.65c1.11,0,0.13,0.39,0.14,0.63l-1.1,0.01
			c4.25,0.9,9.46-1.12,13.82-0.08c-1.32,0.2,0.46,0.34-0.86,0.54c-1.1,0-1.33-0.04-1.44-0.19c-0.65,0.34-2.4,0.7-0.08,0.58
			c-0.08,0.83-4.72,0.81-7.9,1.21c-2.56-0.42,2.61-0.89,3.92-1.34c-1.21,0.11-2.19,0.5-3.96,0.36l0.41-0.63
			c-4.39,0.51-1.18,0.59-2.15,1.23c-1.17,0.83-3.97,0.12-5.18,0.22l1.31-0.2c-3.43-0.12-4.17,0.54-7.25,0.65l-1.47-0.41
			c3.9,0.41,4.69-1.09,6.92-0.86c-5.66-0.36,1.15-1.32,2.9-1.91c-2.43,0.21-4.64,0.22-5.98-0.06c-3.5,0.98-7.42,0.09-10.79,1.22
			c-1.88-0.01,1.63-0.52-0.36-0.43c-3.65,0.12-7.51,0.43-11.35,0.99c-2,0.09-1.67-0.2-2.24-0.43c-9.63,0.27-13.28,1.96-23.78,2.35
			l1.51-0.46c-2.2,0.1-4.09,0.14-5.15,0.68c-2.85-0.84-9.32,1.41-12.94,0.55c-4.65,0.17-4.79,1.08-8.41,1.6
			c-0.02-0.24,1.04-0.8-0.85-0.73c-5.92,0.76-11.55,1.41-17.34,2.05c-5.81,0.63-11.74,1.41-18.26,2.27c0.1-0.11,0.75-0.26,1.07-0.33
			c-8.47,0.91-16.66,2.99-23.71,3.58c-1.3,0.33-5.21,1.06-3.94,1.32c1.64-0.16,1.94,0.34,1.88,0.69c-6.17,1.3-3.17-0.37-7.31,0.34
			c-1.43-0.64,2.55-0.89,2.45-1.61l-5.95,1.34c-3.43,0.22-6.75,1.15-9.76,1.18c1.33-0.09,0.34-0.67,2.58-0.66
			c-0.33,0.08-0.1,0.11-0.42,0.19c4.71-0.59,2.97-0.75,6.34-1.43c-3.82,0.73-8.67,1.56-11.96,1.9c0.85,0.44-2.8,0.65-3.74,1.15
			l-0.23-0.02c0.04,0.24-2.11,0.72-2.77,0.9l-0.98-0.58c-1.52,0.32,0.49,0.29-1.03,0.6c-2.15,0.47-9.9,1.76-10.56,1.09
			c-2.62,0.46-3.32,0.98-6.05,1.31c0.19-0.22,0.83-0.39,0.92-0.5c-5.8,0.76-12.85,2.15-18.38,2.61c-4.42,0.94-8.22,1.7-10.96,2.66
			c1.19-0.26,4.7-0.68,2.59,0.09c-1.15,0.5-3.01,0.7-4.84,1.14c0.37-0.44-4.75,0.45-1.09-0.44c-1.08-0.67-7.94,1.57-8.02,0.76
			c-0.82,0.4-6.1,1.2-7.98,1.98c-0.5-0.27,2.79-0.75,2.74-0.99l-2.37,0.54l-0.04-0.24c-4.62,0.61-5.28,1.77-7.97,2.43l0.09-0.11
			l-1.82,0.48l2.04-1.05c-2.91,0.65-4.32,1.51-7.55,2.25l-0.36-0.14l-1.92,0.59c0.32-0.1,0.42-0.21,0.19-0.23
			c-1.73,0.94-6,1.53-7.63,2.41c-1.32,0.17-2.56-0.37-4.19,0.5l0.17-0.82c4.31-0.96,1.72,0.21,6.22-0.99
			c-3.55-0.28-12.97,1.68-19.23,3.08c-4.97,1.58-13.47,2.56-15.38,4.14l0.44-0.57l-8.6,1.51c-7.19,1.81-14.7,3.21-20.03,5.16
			l-1.6-0.01c-5.37,2.63-19.17,5.38-22.49,7.91c-3.29,0.51,0.81-0.84,1.05-1.19c-2.39,0.5-6.06,2.55-8.49,2.47
			c-0.06-0.23,3.25-1.12,1.72-0.85c-1.82,0.03-2.33,1.09-4.39,1.14c0.98,0.22-2.82,1.82-5.65,2.71c0.53-0.13,0.53-0.13,0.77-0.14
			c0.51,0.23-1.64,0.75-2.79,1.14c0,0,0.08-0.12,0.39-0.25c-14.6,4.72-31.29,10.07-46.75,14.65l2.72-1.24
			c-2.12,0.96-6.07,2.05-7.35,2.38l0.31-0.14c-4.32,0.66-4.39,2.2-7.8,2.46l0.6-0.28c-4.91,1.68-8.08,1.94-12.74,4
			c-3.86,1.05-3.56,0.55-6.28,1.16c-2.18,0.79-3.05,1.59-3.13,1.72l1.06-0.34c1.29-0.01-2.17,1.16-3.66,1.89
			c1.37,0.22,1.11,1.43,5.71,0.52c3.14-1.35,3.49-0.09,7.08-1.47c1.78-1.58,5.42-1.18,8.49-3.07c-1.57,1.19,4.07-1.03,1.38,0.6
			c1.51-0.01,6.91-2.89,9.72-3.2c-0.38,0.27-0.24,0.37-0.83,0.65c3.55-1.55,2.64-0.42,5.36-1.31l-0.3-0.57
			c0.98-0.54,1.44-0.21,2.34-0.63c-0.76,0.17-2.42,0.39-1.67-0.12c1.21-0.55,2.19-1.09,3.55-1.53c0.09,0.23-0.82,0.64-1.44,0.92
			c0,0,2.96-0.89,3.26-0.67c-0.99,0.53-2.35,0.97-3.17,1.61c3.92-1.07,0.37,0.1,2.41-0.03c-0.76-0.54,3.25-1.39,5.29-2.2
			c0.31,0.22-1.44,0.55-1.89,0.93c4.39-0.01,5.91-2.11,11.13-3.43c-0.08,0.12-0.68,0.39-0.99,0.52c2.36-0.95,4.25-0.79,5.7-1.69
			c2.36-0.58,0.67,0.68,4.24-0.42c-1.27-0.42,4.25-1.12,4.11-1.93l2.89-0.34c2.3-1.14-1.04-1.15,3.7-2.6
			c4.41-0.96-0.04,1.42,2.61,1.1l0.93-0.74l2.2-0.3l-0.31,0.13c1.23-0.5,3.58-1.03,3.66-0.8c-0.16,0.24-1.54,0.63-1.68,0.87
			c1.99-1,8.64-1.26,10.53-3.05c1.31-0.13,3.88-0.83,3.65-0.36c0.99-0.84,5.69-1.34,7.28-2.12c-0.17,0.24,1.5,0.11,2.74-0.37
			c-1.76,0.25-0.74-0.23,0.34-0.83c1.6-0.01,5.76-1.42,6.57-0.95c2.25-0.94,1.28-1.17,1.68-1.76c1.6,0,6.38-1.26,5.71-0.33
			c-1.31,0.23-4.22,0.8-3.56,1.15c2.51-0.34,1.01-0.46,3.01-1.04c-0.12,0.17,1.48,0.11,1.15,0.42c1.17-0.38,2.84-0.77,4.57-1.06
			c-2.74,0.32,1.58-0.92-0.09-0.83l-2.42,1.15c-3.08,0.79-0.75-0.24-1.96-0.14c5.4-1.48,4.15-1.96,9.19-3.54
			c0.99-0.1,2.75-0.3,3.29-0.41c-1.7,0.44-1.21,1.04-0.21,0.94c2.73-1.24,5.21-0.83,7.6-1.24c-2.08,0.3-1.1-0.38-0.4-0.72
			c4.83-1.52,1.99-0.18,4.2-0.36c7.58-1.8,12.63-1.93,18.63-3.7l-3.03,0l-0.84,0.79c-2.36,0.03,0.13-1.41,1.34-2.07
			c0.37,0.13,4.11-0.79,2.68-0.13l3.6-1.04c-0.6-0.14-2.94,0.48-1.29-0.17c1.24-0.07,5.02-0.75,2.73,0.11
			c1.93-0.41,4.37-1.1,3.87-1.36c3.11-0.66-0.17,0.82-1.51,1.34c2.48-0.46,2.27,0.12,1.55,0.43l3.42-0.76
			c-0.72,0.31-0.67,0.55-1.38,0.87c2.3-0.23,3.78-1.22,5.81-1.11l0.76-0.67c6.33-0.83,5.69-0.68,11.53-1.72l-1.04-0.18
			c4.29-1.5,3.35-0.02,9.23-1.42c3.3-0.86,5.43-1.43,4.88-1.94c1.89-0.59,2.4-0.3,3.32-0.24c1.45-0.6,4.58-1.79,7.02-1.85
			c-1.59,0.47-2.86,0.85-4.35,1.22c0.55,0.51,5.21-0.8,7.75-0.97c1.68-0.6,7.19-2.3,10.24-3.34c-1.5-0.24-1.08-1.03,1.66-1.99
			c-0.37,0.44,3.87-0.27,5.85-0.34c-0.91,0.51,4.49,0.13,0.4,0.97c-1.22,0.02-1.86-0.39-3.45,0.07c1.04,0.2,3.72,0.18,6.49,0.06
			c-0.18,0.22-1.55,0.7-2.96,0.94c0.74-0.29,0.28-0.33,0.14-0.46c-4.91,1.27,1.21,0.67,0.54,1.25c1.31-0.35,4.16-0.73,2.76-0.85
			c2.76,0.48,7.83-1.77,10.77-1.51c0.11-0.11-1.58-0.14,0.34-0.68c2.91-0.56,2.77-0.1,3.99-0.11c0.83-0.4,5.25-1.26,4.84-1.07
			c1.91-0.52-2.21-0.57,0.45-1.38c1.75-0.89,4.33-0.76,6.48-1.26c2.68,0.03-2.56,0.7-3.61,1.07l7.35-1.41
			c2.22-0.01-0.89,0.73-3.08,1c3-0.08,6.75-0.97,7.55-1.6c1.87-0.16,2.83-0.41,4.6-0.46c-1.69,0.53-1.46,1.39-4.15,1.93
			c-4.47,0.6,1.52-0.9-2.3-0.48l-0.25,0.57c-1.67-0.06-2.91,0.52-4.65,0.83c-0.99,0.02,0.19-0.22,0.83-0.39
			c-3.15,0.52-5.7,0.63-7.99,1.59c4.32-0.17,10.62-1.81,12.57-1.47l8.37-1.96c-0.03-0.24-3.04-0.2-0.69-0.9
			c1.07,0.47,3.61,0.38,6.9,0.04c-1.3-0.5,5.14-1.32,3.43-1.63c-1.48,0.55-2.32,0.1-2.54,0.07c3.16-0.48,0.34-0.67,2.08-0.95
			c5.8-0.66-0.15,0.46,5.55-0.1c-1.16,0.46-4.12,1.56-7.22,2.28c0.26,0.27,3.14-0.48,4.51-0.33c-1.91-0.09,1.21-0.81-0.34-0.75
			c4.54-0.93,9.79-2.31,15.32-3.21c-0.74,1.1-9.27,2-7.36,2.93c2.7-0.51,2.63-0.99,4.82-1.21c1.93,0.34,6.44-0.76,10.15-1.26
			l-1.68-0.09c1.38-0.42,4.02-0.58,5.67-0.72l-0.41,0.18l1.59-0.39c0.26-0.01,0.32,0.02,0.32,0.06c1.74-0.52,6.33-0.8,9.72-1.37
			c-0.06-0.48-3.38,0.37-5.02,0.52c-0.46-0.06-3.64,0.13-2.15-0.39c4.24-0.53,7.13-1.45,11.93-1.99l-1.54,0.03
			c1.49-0.51,3.58-0.58,5.87-0.86c4.19-0.12-2.98,1.01-0.43,1.01c-1.58,0.61-4.48,0.45-4.84,1.11l2.69,0.37
			c2.14-0.66,4.62-0.31,6.12-0.56l-1.67-0.12c0.27-0.56,1.82-0.33,2.6-0.33l-1.18-0.65c-2.4,0.13-3.96,0.98-5.75,0.73
			c4.22-0.71,3.17-1.25,8.29-1.77c0.26,0.28-0.98,0.2-1.49,0.48c1.77,0.04,3.56-0.75,6.43-0.78c-1.61,0.34-4.21,0.89-2.09,1.1
			l1.47-0.72c1.32-0.03,0.81,0.24,1.35,0.21c1.88-0.07-0.49-0.56,2.48-0.69c0.45,0.07,1.44,0.11,1.02,0.28
			c3.39-0.3,1.61-0.34,4.76-0.93c-2.84,0.27-3.03-0.59-0.09-0.97c4.17-0.29,6.96-1.09,9.89-0.58l1.83-0.52
			c-1.15,0.64,2.65-0.02,3.98-0.04c0.49,0.56-6.25,0.49-6.17,1.46c2.75-0.13,1.58,0.27,0.72,0.6c2.96-0.33,1.04-0.78,2.31-1.28
			c0.03,0.24,5.05-0.33,3.35,0.33c2.52-0.17,2.91-0.82,4.77-0.86c-0.26,0.26-0.56,0.59-0.36,0.89c0.2-0.22,2.6-0.16,3.07-0.18
			c-0.44-0.08,0.83-0.58-1.34-0.23c0.51-0.51,5.15-0.43,5-0.82c0.27,0.53,4.72-0.3,7.04-0.2c-0.32-1.27-4.23,0.79-5.08-0.18
			c3.03-0.72,10.31-0.74,15.21-1.65c4.29-0.04,0.03,0.49,0.94,0.9c-3.93,0.47-4.94,0.16-8.33,0.61c3.75-0.03,9.88-0.56,12.59-1.14
			c4.07-0.31,4.59,0.94,9.51,0.38c-0.68-0.37-0.58-0.48-2.13-0.55c1.31-0.22,2.86-0.15,4.28-0.22c0.86-0.31-2.22-0.2-0.26-0.53
			c0.77,0.04,2.42,0.01,2.11,0.3l-0.33,0.06c4.7-0.62,3.46,0.81,7.48-0.19c-0.34-0.19-1.21,0.12-2.2,0.04
			c-0.78-0.28,1.71-0.86,3.58-1.09c-0.32,0.3,1.65-0.03,2.97-0.01c0.9,0.42-3.29,0.31-3.93,0.66l3.63-0.12l-0.77-0.03l3.92-0.66
			c-2.74,0.29-1.35-0.51-0.14-0.63c2.75-0.04,5.51-0.04,5.2,0.5c0.31-0.54,3.72-0.65,6.13-0.86c-2.65-0.08-0.35-0.44,0.41-0.63
			l3.98,0.37c-4.17,0.32,0.9,0.43-0.07,0.83c-1.18,0.59-3.73,0.41-5.93,0.42c4.34,0.8,6.02-0.76,9.78-0.45
			c0.01,0.24-0.31,0.54-1.96,0.55c0.66,0.14,3.39-0.61,5.93-0.42c-0.67-0.14-2.12-0.58,0.4-0.87l3.33,0.51
			c3.85,0.03,1.3-0.67,4.47-1.04l-2.1-0.36c0.31-0.53,4.29-0.12,4.38-0.7c-1.98,0.03-3.07,0.51-5.15,0.4
			c-0.8-0.54,2.63-0.37,3.81-0.71c4.31,0.13,3.42,0.17,6.64,0.53c0.14,0.88-5.25,1.23-4.54,2.35c4.17-0.25,10.21-0.74,12.96-0.42
			c3.73-0.32,3.38-1.01,2.82-1.5c1.55-0.12,2.31-0.05,3.3,0.06l-1.75,0.31c4.61-0.35,7.25-0.69,12.1-0.75
			c2.74-0.19,1.63-0.7,0.97-1.1l2.97-0.12l-0.45-0.11c0.66-0.56,3.3-0.39,5.29-0.38c0.01,0.24-1.2,0.3-1.09,0.45
			c1.76,0.2,4.41,0.13,5.83-0.12c0.01,0.24-1.2,0.79-3.29,0.63c-0.22-0.06-0.11-0.15-0.33-0.21l-3.52,0.33
			c4.07-0.32,6.5,0.29,6.4,0.87c4.07-0.32-3.31-0.59,1.53-0.83c3.2,0.56,6.22,0.46,8.89,0.44c2.67,0,4.98,0.06,6.75,0.88
			c2.96-0.32,6.49-0.86,11.11-0.86c0.01-0.5,3.09-0.16,2.65-0.76c-4.41-0.69-8.26,0.88-11.79-0.05c-1.97,0.21-1.31,0.63-2.2,0.88
			c-1.75,0.03-3.41-0.04-3.63-0.34c4.07-0.27,1.1-1.17,6.27-1.16c-0.65-0.42-4.85-0.29-6.71-0.42c0.55-0.22-0.01-0.49-1.22-0.68
			c1.33-0.38,4.29-0.7,5.84-1.03c-0.54,0.22,0.45,0.36,0,0.49l5.4-0.66c1.66,0.31,2.1,0.67,1.21,0.93c2.98,0.16,8.05-0.44,8.05,0.3
			c3.86-0.05-1.22-0.45-1.54-0.66l0.33-0.03l-4.08,0.02c-0.44-0.85,4.63,0.24,5.29-0.54c0.66-1.52,5.74,0.58,8.6,0.39l-3.32,1.05
			l2.87-0.19c-1.66,0.4-1.66,1.13-4.2,1.54c3.96,0.1,9.57,0.53,12.11,0.37c0.98,0.39,1.41,0.77,0.96,1.13
			c3.98-0.59,6.16,0.52,9.57,0.63c3.63-0.32-3.62-0.66-0.97-1.13c0.97,0.28,2.65,0.17,3.71,0.08c-1.42,0.06-4.82-0.35-7.23-0.59
			c1.98,0.07,1.78-0.48,2.33-0.69l-3.31-0.2c0.23-0.67,4.07,0.05,5.62-0.25c-1,0.57-0.45,0.61-1.45,1.18
			c2.87-0.17,7.16-0.05,9.58,0.38c1.42,0.29-1.22,0.26-1.99,0.42c0.65,0.43,2.87-0.17,3.4,0.37c-0.45,0.36-1.76-0.03-2.76,0.06
			l8.36,0.47c-0.01,0.24-2.1,0.24-3.41,0.1c2.52,0.37,4.39,0.3,7.39-0.41c2.85,0.35,6.13,0.82,5.15,1.14
			c1.32-0.1,0.45-0.36,0.45-0.6c3.85,0.29,4.31-0.54,6.62-0.46l-1.73-0.53c3.72,0.63,0.9-0.71,4.19-0.21
			c-0.56,0.44-0.37,0.99,0.17,1.53c0.57-0.44,2.64,0.06,4.07,0.12c-0.86-0.51,3.09-0.3,0.8-0.86c3.32-0.24,4.83,0.49,7.28,0.01
			c-1.53-0.23,2.88-0.34,1.57-0.74c3.2,0.13,5.37,0.81,4.47,1.27c-1.1-0.1-2.86-0.39-2.76,0.01l5.83,0.21
			c1.43,0.31,3.28,0.53,3.48,1.09c1.9-0.51,5.47,0.76,6.94,0.11c-2,0.35-3.51-0.38-4.27-0.5l0.91-0.05
			c-0.13-0.01-0.28-0.03-0.47-0.06l2.57-0.78c-2.4-0.52-0.47,0.59-3.88,0.37c-2.91-1.05,6.79-0.92,3.73-1.65
			c-2.51-0.43-2.12,0.44-4.22,0.63l0.54,0.05l-4.75,0.1c-0.2-0.31,1.24-0.48,1.24-0.48c-5.73-0.3-6.59-0.81-12.75-1.25
			c0.44,0.14,1.6,1.12-1.15,1.12c-1.98,0.12-2.19-0.42-3.83-0.56c0.99-0.07,1.9-0.54,3.2-0.14l-0.08-0.64
			c4.65-0.53,2.26-1.27,8.55-1.17c0.31-0.45,4.88-0.47,8.28-0.13l-1.63-0.52c3.57-0.6,0.63,0.69,5.18,0.29
			c1.83,0.95,5.19,2.15,2.62,2.69c3.18,0.4,4.3,0.01,7.17,0.19c1.72,0.81-0.93,0.69-0.64,1.4c2.1,0.06,4.75-0.06,3.23-0.56
			l3.95,0.54c0.1,0.16-1.33,0.06-1.88,0.01c1.53,0.25,4.52,0.11,5.41-0.09C679.06,151.32,678.06,151.37,677.63,151.22z"/>
		<path class="st0" d="M599.29,149.53c0.14-0.01,0.26-0.01,0.36-0.03C599.54,149.51,599.42,149.52,599.29,149.53z"/>
		<path class="st0" d="M667.55,147.97c0.1-0.02,0.18-0.05,0.22-0.08C667.68,147.92,667.62,147.95,667.55,147.97z"/>
		<path class="st0" d="M315.16,157.06c0.27-0.05,0.55-0.1,0.8-0.15C315.66,156.96,315.4,157.01,315.16,157.06z"/>
		<path class="st0" d="M653.13,145.53c0.06-0.01,0.11-0.01,0.17-0.02C653.25,145.52,653.19,145.52,653.13,145.53z"/>
		<path class="st0" d="M656.42,147.39c-0.15-0.02-0.3-0.03-0.45-0.05l0.54,0.17C656.34,147.46,656.34,147.42,656.42,147.39z"/>
		<path class="st0" d="M345.27,163.14c-0.26,0.08-0.49,0.17-0.59,0.26C344.89,163.35,345.28,163.22,345.27,163.14z"/>
		<path class="st0" d="M404.18,157.01c-0.07-0.05-0.08-0.1-0.11-0.15C404.02,156.9,404.03,156.94,404.18,157.01z"/>
		<path class="st0" d="M660.06,151.86l-1.08,0.06C659.37,151.94,659.55,151.88,660.06,151.86z"/>
	</g>
	<g>
		<path class="st0" d="M219.66,109.02C219.66,109.02,219.66,109.01,219.66,109.02C219.67,109,219.68,108.99,219.66,109.02z"/>
		<path class="st0" d="M383.11,98.82l-0.02,0c-4.04-0.07-8.07-0.01-12.11,0.05c-2.02,0.03-4.05,0.08-6.07,0.14
			c2.01-2.55,3.96-5.14,5.91-7.74c1.94-2.64,3.95-5.21,5.69-7.99c1.73-2.79,3.27-5.72,4.3-9c-2.85,1.93-5.23,4.2-7.47,6.56
			c-2.24,2.36-4.23,4.91-6.37,7.35c-2.11,2.46-4.24,4.89-6.38,7.32c-1.12,1.28-2.26,2.54-3.39,3.81c-7.5,0.37-15,0.9-22.48,1.59
			c-4.16,0.4-8.33,0.84-12.48,1.32c1.46-2.04,2.9-4.1,4.32-6.17c3.91-5.9,7.67-11.9,10.77-18.4c0.11-0.23,0.08-0.52-0.1-0.73
			c-0.24-0.28-0.66-0.3-0.94-0.06c-5.41,4.75-10.18,9.98-14.83,15.29c-3.19,3.74-6.31,7.54-9.36,11.38
			c-0.47,0.07-0.94,0.13-1.42,0.2c-7.98,1.22-15.91,2.74-23.73,4.88c7.26,0.02,14.45-0.25,21.63-0.58
			c-0.14,0.18-0.28,0.36-0.43,0.55c-4.01,5.28-8.03,10.57-12.1,15.77c-0.17-0.38-0.39-0.76-0.7-1.12c-0.47-0.58-1.2-1.07-1.94-1.33
			c-0.37-0.13-0.66-0.17-0.99-0.23c-0.32-0.04-0.53-0.03-0.8-0.04c-0.93,0.03-1.55,0.19-2.09,0.34c-1.08,0.3-1.96,0.63-2.82,0.96
			l-2.52,0.99c-3.28,1.32-6.53,2.63-9.79,3.88c-1.62,0.62-3.25,1.23-4.81,1.75c-1.52,0.51-3.15,0.89-3.78,0.79
			c-0.16-0.01-0.28-0.05-0.45-0.11c-0.18-0.06-0.38-0.19-0.58-0.29c-0.31-0.18-0.59-0.45-0.87-0.76c2.09-1.42,4.11-2.93,6.07-4.54
			c5.73-4.63,10.83-10.09,15.03-16.23l0.79-1.15c0.27-0.41,0.55-0.86,0.84-1.42c0.14-0.27,0.3-0.59,0.44-0.95
			c0.14-0.37,0.3-0.82,0.4-1.5c0.02-0.16,0.04-0.35,0.04-0.58c0.01-0.2,0-0.44-0.04-0.73c-0.03-0.25-0.1-0.56-0.22-0.89
			c-0.1-0.3-0.28-0.65-0.49-0.96c-0.2-0.31-0.46-0.58-0.74-0.82c-0.27-0.23-0.52-0.39-0.8-0.54c-0.25-0.13-0.47-0.21-0.71-0.3
			c-0.23-0.08-0.39-0.11-0.59-0.15c-0.71-0.13-1.22-0.11-1.63-0.08c-0.43,0.03-0.76,0.09-1.09,0.16c-0.64,0.13-1.17,0.29-1.69,0.46
			c-1.02,0.34-1.93,0.72-2.81,1.12c-1.76,0.81-3.41,1.69-5.04,2.67c-1.64,0.99-3.26,2.12-4.74,3.37c-1.5,1.25-2.89,2.62-4.17,4.08
			c-0.66,0.77-1.19,1.42-1.77,2.13c-0.57,0.7-1.15,1.43-1.72,2.2c-1.14,1.53-2.28,3.24-3.13,5.35c-0.41,1.06-0.72,2.22-0.87,3.43
			c-0.05,0.61-0.1,1.23-0.06,1.85c0,0.3,0.03,0.59,0.07,0.88c-2.28,1.34-4.61,2.57-6.95,3.66c-1.3,0.6-2.91,1.09-4.5,1.55
			c-1.6,0.45-3.24,0.84-4.89,1.18c-3.3,0.66-6.6,1.15-9.54,0.97c-1.44-0.08-2.78-0.41-3.46-0.84c-0.59-0.35-1.02-0.98-1.22-2.07
			c-0.21-1.08-0.1-2.51,0.21-3.96c0.08-0.36,0.17-0.73,0.27-1.11c0.1-0.37,0.23-0.79,0.34-1.12c0.21-0.7,0.49-1.36,0.79-2.02
			c0.41-0.87,0.92-1.71,1.51-2.53c1.01-0.8,2.02-1.59,3.02-2.4c2.72-2.2,5.4-4.47,8.1-6.74c2.69-2.28,5.44-4.5,8.27-6.6
			c1.43-1.03,2.87-2.04,4.35-3.01c1.47-0.99,2.97-1.87,4.48-2.94c0.19-0.14,0.38-0.28,0.59-0.5c0.06-0.06,0.11-0.12,0.18-0.22
			c0.05-0.1,0.2-0.23,0.16-0.67c-0.04-0.48-0.6-0.68-0.7-0.68c-0.14-0.02-0.33-0.02-0.38-0.01c-0.65,0.11-1.02,0.28-1.47,0.45
			c-0.85,0.35-1.66,0.74-2.46,1.13c-1.61,0.78-3.18,1.6-4.76,2.43c-3.16,1.64-6.29,3.34-9.4,5.09c-3.12,1.77-6.17,3.59-9.18,5.73
			c-1.5,1.08-2.98,2.27-4.37,3.67c-0.17,0.17-0.33,0.36-0.5,0.54c-1.72,1.2-3.43,2.44-5.13,3.68c-2.39,1.74-4.73,3.55-7.04,5.4
			c0.12-0.18,0.24-0.36,0.35-0.54c0.67-0.79,1.33-1.59,1.96-2.41c2.18-2.87,4.24-5.78,6.32-8.71c0.52-0.76,1-1.44,1.53-2.38
			c0.04-0.09,0.06-0.09,0.12-0.26c0,0,0,0-0.01,0.01c0.14-0.2,0.49-0.95-1.1-1.75c-1.07,0.21-0.68,0.27-0.89,0.32l-0.19,0.15
			l-0.56,0.48l-1.01,0.92l-1.98,1.82l-2,1.8c-2.67,2.38-5.37,4.81-7.75,7.52c-1.88,2.12-3.6,4.36-5.27,6.7
			c-4.71,3.33-9.75,6.1-14.84,8.54c-3.03,1.41-6.18,2.54-9.26,3.24c-3.04,0.68-6.22,0.73-7.99-0.32c-0.45-0.25-0.91-0.65-1.23-1.03
			c-0.33-0.39-0.53-0.77-0.63-1.14c-0.21-0.69-0.03-1.73,0.66-2.96c0.67-1.21,1.67-2.47,2.78-3.79c0.58-0.73,1.18-1.41,1.81-2.06
			c0.04,0,0.07,0.01,0.11,0.01c0.36,0.03,0.69,0.02,1,0c0.63-0.05,1.19-0.17,1.71-0.31c1.05-0.29,1.97-0.68,2.84-1.11
			c1.73-0.87,3.29-1.85,4.8-2.91c0.75-0.53,1.51-1.07,2.23-1.66c0.36-0.3,0.73-0.6,1.1-0.92c0.37-0.35,0.72-0.65,1.15-1.23
			c0.11-0.18,0.23-0.32,0.37-0.76c0.04-0.19,0.16-0.55-0.04-1.09c-0.19-0.52-0.65-0.86-0.93-0.95c-0.53-0.19-0.75-0.14-0.97-0.15
			c-0.2,0.01-0.36,0.03-0.51,0.06c-0.58,0.1-1.03,0.24-1.49,0.39c-0.91,0.27-1.76,0.58-2.62,0.87c-1.72,0.59-3.42,1.16-5.13,1.86
			c-1.48,0.61-2.95,1.36-4.36,2.24c-0.46-0.43-0.88-0.97-1.15-1.55c-0.25-0.5-0.43-1.02-0.54-1.62c-0.12-0.61-0.15-1.23-0.17-2.15
			l-0.02-0.37c-0.01-0.14-0.01-0.25-0.03-0.44c-0.02-0.19-0.02-0.3-0.08-0.59l-0.08-0.37c-0.02-0.11-0.11-0.36-0.18-0.53
			c-0.09-0.28-0.48-0.94-0.95-1.37c-0.29-0.25-0.64-0.47-1-0.63c-0.36-0.16-0.72-0.22-1.1-0.26c-0.41-0.04-0.72,0-0.95,0.05
			c-0.26,0.05-0.55,0.13-0.76,0.22c-0.29,0.13-0.68,0.33-0.86,0.47c-0.85,0.6-1.19,1.04-1.58,1.47c-0.38,0.43-0.67,0.83-0.97,1.22
			c-1.14,1.54-2.11,3.07-3.06,4.35c-1.98,2.7-4.19,5.32-6.47,7.77c-2.3,2.44-4.73,4.7-7.26,6.59c-2.29,1.68-5.22,2.91-7.7,2.71
			c-1.41-0.07-2.83-0.48-3.36-0.93c-0.28-0.2-0.26-0.34-0.23-0.36c0.05,0,0.03-0.19,0.29-0.84c0.09-0.24,0.21-0.53,0.33-0.84
			c0.06-0.06,0.12-0.11,0.17-0.17c2.54-2.72,4.84-5.65,6.73-8.82c0.58-0.98,0.38-2.26-0.53-3c-1-0.81-2.47-0.66-3.28,0.34
			l-0.01,0.01c-1.08,1.32-2.19,2.6-3.36,3.82c-0.28-0.41-0.6-0.8-0.94-1.13c-0.61-0.6-1.26-1.02-1.88-1.36
			c-1.24-0.66-2.33-0.96-3.32-1.23c-1.01-0.25-1.78-0.43-2.87-0.63c-1.02-0.18-2.05-0.29-3.07-0.35c-2.05-0.11-4.09,0.02-6.09,0.35
			c-1,0.17-1.99,0.37-2.95,0.65c-0.97,0.25-1.95,0.59-2.77,0.87c-1.75,0.6-3.6,1.31-5.44,2.28c-1.82,1-3.66,2.26-5.24,4.02
			c-1.56,1.74-2.82,4.04-3.32,6.34c-0.26,1.11-0.42,2.26-0.41,3.53c0.02,1.26,0.2,2.68,0.86,4.16c0.63,1.48,1.92,2.89,3.32,3.67
			c1.41,0.82,2.8,1.12,4.03,1.25c2.47,0.23,4.53-0.12,6.48-0.57c1.94-0.46,3.75-1.07,5.51-1.74c1.77-0.68,3.41-1.43,5.11-2.26
			c1.72-0.85,3.39-1.8,4.96-2.89c0.82-0.56,1.63-1.16,2.41-1.77c0.51,0.73,1.13,1.33,1.76,1.78c2.37,1.61,4.54,1.92,6.62,2.16
			l0.77,0.06c0.23,0.01,0.61,0.02,0.9,0.02c0.6-0.02,1.13-0.05,1.68-0.12c1.09-0.13,2.14-0.37,3.15-0.68
			c2.02-0.64,3.86-1.5,5.63-2.68c3.24-2.18,5.96-4.79,8.43-7.54c2.49-2.75,4.7-5.64,6.76-8.72c0.44-0.67,0.84-1.32,1.22-1.95
			c0.24,0.6,0.54,1.18,0.92,1.71c0.48,0.71,1.03,1.33,1.65,1.89c-0.28,0.26-0.56,0.53-0.82,0.8c-1.24,1.3-2.58,2.72-3.68,4.56
			c-0.55,0.92-1.06,1.96-1.38,3.17c-0.32,1.2-0.41,2.62-0.11,3.97c0.29,1.35,0.91,2.58,1.68,3.57c0.78,1,1.64,1.8,2.69,2.48
			c2.12,1.36,4.46,1.85,6.56,1.95c2.13,0.1,4.12-0.17,6.03-0.55c3.83-0.76,7.3-2.21,10.65-3.79c2.74-1.31,5.34-2.85,7.81-4.57
			c0.05,0.21,0.12,0.42,0.25,0.7c0.28,0.57,0.75,1.14,1.22,1.45c0.53,0.37,1.03,0.56,1.43,0.64c0.51,0.11,0.72,0.09,1.04,0.09
			c0.35-0.01,0.45-0.04,0.68-0.07c0.22-0.04,0.34-0.07,0.49-0.11c0.57-0.17,0.89-0.32,1.22-0.48c0.31-0.15,0.57-0.3,0.82-0.44
			c0.98-0.58,1.74-1.14,2.51-1.71c3-2.28,5.59-4.65,8.23-6.89c1.1-0.95,2.23-1.88,3.34-2.82c-0.12,1.19-0.13,2.44,0.08,3.77
			c0.19,1.19,0.56,2.46,1.26,3.65c0.36,0.58,0.75,1.16,1.24,1.67c0.49,0.53,1.06,0.98,1.62,1.36c2.32,1.47,4.56,1.82,6.61,2.02
			c4.11,0.33,7.85-0.25,11.47-0.92c1.81-0.35,3.61-0.76,5.41-1.24c1.8-0.5,3.58-1,5.51-1.84c2.39-1.04,4.64-2.21,6.83-3.47
			c0.11,0.14,0.21,0.29,0.33,0.43c0.77,0.94,1.72,1.82,2.85,2.49c0.57,0.32,1.14,0.63,1.8,0.86c0.66,0.24,1.41,0.41,2.12,0.47
			c1.45,0.12,2.64-0.09,3.68-0.32c1.05-0.23,1.95-0.53,2.86-0.83c1.78-0.6,3.46-1.25,5.12-1.91c3.31-1.31,6.6-2.66,9.84-4.01
			l2.4-0.97c0.15-0.06,0.31-0.12,0.46-0.18c-0.27,0.84-0.61,1.75-0.99,2.65l-1.08,2.55c-0.1,0.26-0.2,0.5-0.34,0.94
			c-0.04,0.15-0.06,0.17-0.1,0.42c-0.03,0.27-0.09,0.25-0.06,0.92c-0.13,0.12,0.39,1.99,1.75,2.47c1.7,0.51,1.72,0.09,2.28,0.03
			c0.19-0.08,0.47-0.22,0.58-0.29l0.33-0.22c0.14-0.11,0.32-0.24,0.42-0.33c0.25-0.21,0.44-0.38,0.64-0.56
			c1.44-1.4,2.67-2.64,3.96-3.93c1.26-1.29,2.52-2.56,3.68-3.9c4.6-5.43,9.04-10.93,13.44-16.46c1.46-1.85,2.88-3.73,4.3-5.62
			c5.59-0.3,11.17-0.59,16.76-0.8c4-0.18,8-0.31,12-0.43c1.3-0.05,2.6-0.08,3.9-0.12c-3.31,3.64-6.64,7.25-9.99,10.85l-13.33,14.1
			c-1.08,1.14-1.1,2.96-0.01,4.12c1.13,1.21,3.03,1.27,4.24,0.14c4.77-4.48,9.36-9.15,13.81-13.95c4.46-4.79,8.76-9.73,12.95-14.76
			c0.19-0.23,0.38-0.47,0.57-0.71l11.84-0.27l12-0.2c1.8-0.03,3.26-1.48,3.29-3.29C386.43,100.38,384.96,98.85,383.11,98.82z
			 M121.92,136.09c-1.41,0.8-2.84,1.55-4.32,2.17c-1.51,0.64-3.13,1.25-4.66,1.78c-1.56,0.53-3.12,0.98-4.62,1.27
			c-1.49,0.29-2.97,0.43-4.02,0.29c-0.52-0.06-0.88-0.2-0.99-0.29c-0.12-0.1-0.09-0.05-0.14-0.2c-0.05-0.14-0.14-0.5-0.13-1
			c0.01-0.5,0.11-1.1,0.24-1.71c0.26-1.15,0.77-2.03,1.54-2.93c0.78-0.88,1.87-1.67,3.13-2.36c1.27-0.7,2.7-1.3,4.28-1.88
			c0.84-0.3,1.53-0.55,2.26-0.76c0.73-0.22,1.46-0.38,2.2-0.53c1.48-0.27,2.97-0.4,4.44-0.35c0.74,0.03,1.47,0.09,2.18,0.2
			c0.65,0.1,1.6,0.3,2.31,0.46c0.72,0.17,1.34,0.37,1.66,0.53c0.36,0.18,0.29,0.19,0.3,0.13c-0.01-0.01,0.02-0.1,0.02-0.08
			c0.04-0.01,0.04,0.14,0.03,0.34c-0.03,0.28-0.14,0.68-0.28,1.18c-0.44,0.35-0.89,0.7-1.33,1.02
			C124.69,134.37,123.33,135.28,121.92,136.09z M163.79,117.08c0-0.07,0.01,0.04,0.02,0.07c0,0,0,0.01,0,0.01
			c-0.01-0.02-0.01-0.03-0.01-0.03C163.8,117.11,163.79,117.09,163.79,117.08z M221.37,110.35l0.02-0.02
			C221.31,110.32,221.46,110.31,221.37,110.35z M219.67,109.01c-0.01,0.02-0.02,0.05-0.02,0.05c-0.01,0.03-0.03,0.07-0.05,0.1
			C219.64,108.92,219.81,108.84,219.67,109.01z M203.64,136.85c0,0,0-0.02,0.02-0.08c0,0,0,0,0,0
			C203.65,136.79,203.65,136.82,203.64,136.85C203.63,136.87,203.64,136.85,203.64,136.85z M264.89,118.75
			c0.49-0.64,1.01-1.29,1.56-1.95c0.54-0.65,1.13-1.36,1.63-1.93c1.05-1.18,2.19-2.28,3.41-3.28c1.22-1.01,2.51-1.89,3.89-2.71
			c0.16-0.09,0.33-0.18,0.49-0.27c-3.08,3.82-6.59,7.32-10.45,10.43c-0.55,0.45-1.1,0.89-1.67,1.32
			C264.1,119.83,264.47,119.29,264.89,118.75z M290.05,126.69c0,0.01,0,0.03,0,0.05C290.05,126.7,290.05,126.68,290.05,126.69z"/>
	</g>
	<path class="st0" d="M699.39,23.39c-0.17-0.44-0.51-0.94-0.92-1.28c-0.87-0.69-1.66-0.77-2.22-0.81c-0.59-0.03-1.02,0.04-1.45,0.1
		c-1.62,0.31-2.85,0.83-4.09,1.35c-1.23,0.54-2.41,1.09-3.56,1.68l-3.41,1.83l-3.33,1.94c-4.74,2.83-9.29,5.89-13.73,9.08
		c-6.48,5.15-37.65,30.1-46.37,40.84c-8.69,10.69-14.22,16.18-15.33,17.25c-0.02,0.04-0.05,0.08-0.07,0.12
		c-3.35,3.19-7.28,5.76-11.56,7.41c-2.14,0.81-4.38,1.43-6.56,1.7c-1.07,0.14-2.05,0.15-3.11,0.05c-1.03-0.1-2.07-0.31-2.85-0.63
		c-0.26-0.1-0.49-0.21-0.67-0.32c1.55-0.92,3.09-1.88,4.62-2.95c2.19-1.56,4.44-3.28,6.27-5.91l0.62-1.05
		c0.19-0.37,0.35-0.77,0.53-1.15c0.29-0.71,0.51-1.35,0.71-2.24c0.05-0.22,0.09-0.46,0.12-0.77c0.03-0.29,0.05-0.66-0.03-1.2
		c-0.03-0.17-0.07-0.33-0.12-0.49c-0.04-0.16-0.17-0.45-0.29-0.65c-0.1-0.19-0.33-0.49-0.58-0.72c-0.24-0.23-0.54-0.42-0.87-0.57
		c-0.64-0.27-1.2-0.27-1.57-0.24c-0.24,0.02-0.32,0.05-0.48,0.08c-0.16,0.04-0.27,0.07-0.36,0.11c-0.8,0.3-1.12,0.56-1.48,0.8
		c-0.34,0.24-0.63,0.47-0.91,0.69c-1.08,0.9-1.98,1.74-2.96,2.61c-0.96,0.86-1.9,1.76-2.84,2.69c-0.52,0.53-1.03,1.07-1.54,1.62
		l0-0.01c0,0-3.25,3.27-4.31,4.21c-0.82,0.72-3.51,2.02-4.7,2.57c-0.59,0.25-1.19,0.5-1.78,0.75c-2.33,0.96-4.56,1.88-6.76,2.63
		c-2.21,0.74-4.39,1.34-6.62,1.72c-0.93,0.17-1.87,0.3-2.8,0.41c-1.83-0.1-1.46-1.9-1.22-2.66c0,0,0,0,0,0
		c0.23-0.44,0.47-0.88,0.72-1.32c1.04-1.48,3.43-3.49,5.08-4.8c1.11-0.8,2.2-1.62,3.26-2.51c0.76-0.64,1.5-1.31,2.21-2.05
		c0.71-0.74,1.41-1.53,2.03-2.57c0.29-0.53,0.58-1.16,0.68-1.92c0.03-0.29,0.07-0.67,0.01-1.12c-0.06-0.43-0.24-1.09-0.88-1.63
		c-0.66-0.53-1.39-0.58-1.83-0.56c-0.46,0.03-0.81,0.12-1.13,0.22c-0.02,0-0.05,0-0.07,0c0,0-6.75,1.87-14.1,12.05
		c-1.25,0.5-2.49,0.98-3.86,1.47c-1.81,0.67-3.6,1.39-5.33,2.17l-10.26,4.56c-1.71,0.74-3.42,1.45-5.14,2.16l-2.42,0.97
		c-0.67,0.21-1.61,0.44-2.44,0.62c-1.71,0.38-3.48,0.68-5.2,0.89c-0.67,0.07-1.31,0.11-1.86,0.1c0.1-0.25,0.22-0.54,0.36-0.82
		c0.67-1.3,1.63-2.88,2.58-4.29c1.29-1.93,2.71-3.78,4.25-5.56c2.66-2.35,5.53-4.46,8.51-6.43c3.06-1.98,6.26-3.79,9.52-5.59
		c3.26-1.82,6.61-3.49,9.96-5.43c1.67-0.97,3.36-1.97,5.04-3.23c0.84-0.63,1.68-1.34,2.5-2.24c0.41-0.45,0.81-0.98,1.18-1.59
		c0.17-0.34,0.36-0.64,0.5-1.04l0.2-0.58c0.05-0.16,0.08-0.3,0.13-0.48c0.13-0.71,0.37-1.52-0.05-2.96
		c-0.21-0.71-0.85-1.6-1.62-2.05c-0.77-0.47-1.46-0.58-1.97-0.62c-1.06-0.06-1.7,0.11-2.33,0.25c-0.61,0.16-1.15,0.34-1.66,0.54
		c-1.03,0.39-1.92,0.84-2.81,1.27c-0.91,0.42-1.76,0.9-2.63,1.35c-3.43,1.9-6.69,3.96-9.85,6.16c-3.16,2.22-6.19,4.48-9.21,7
		c-2.87,2.41-5.78,4.89-8.59,7.65c-2.06,2.05-4.04,4.27-5.83,6.66c-3.44,1.8-6.92,3.52-10.45,5.12c-6.5,2.85-13.33,5.24-20.21,6.84
		c-1.72,0.39-3.45,0.73-5.17,1.03c-0.85,0.13-1.74,0.3-2.56,0.4c-0.81,0.11-1.47,0.15-2.09,0.12c-0.59-0.02-1.24-0.13-1.77-0.28
		c-0.47-0.14-0.92-0.33-1.46-0.66c-1.08-0.65-2.29-1.67-3.46-2.81c-2.37-2.29-4.63-5.02-6.8-7.79c-0.84-1.06-1.64-2.16-2.45-3.25
		c1.77-1.36,3.59-2.67,5.41-3.98l6.16-4.44l6.16-4.44c0.99-0.73,2.13-1.51,3.17-2.29c1.05-0.78,2.08-1.56,3.09-2.35
		c8.06-6.37,15.82-12.96,23.57-19.58c3.87-3.32,7.71-6.67,11.5-10.08l5.66-5.14c1.86-1.75,3.74-3.47,5.57-5.25
		c0.19-0.19,0.23-0.5,0.08-0.73c-0.18-0.26-0.53-0.32-0.78-0.15c-16.84,11.51-32.89,24.12-49.38,35.81
		c-1.02,0.73-2.05,1.45-3.07,2.14c-1.03,0.7-2.01,1.32-3.11,2.05l-6.41,4.22l-6.37,4.19c5.61-6.15,11.09-12.42,16.3-18.91
		c6.32-8.05,12.63-16.14,17.41-25.33c0.12-0.24,0.09-0.54-0.1-0.74c-0.24-0.27-0.66-0.29-0.93-0.05
		c-3.85,3.45-7.38,7.12-10.86,10.81l-10.37,11.12c-6.9,7.41-13.82,14.77-20.98,21.92c-7.15,7.15-14.42,14.19-21.75,21.21l-5.53,5.26
		l-2.78,2.66c-0.95,0.92-1.83,1.76-2.89,2.92c-0.14,0.16-0.29,0.33-0.47,0.55c-0.12,0.15-0.18,0.23-0.36,0.5l-0.11,0.17
		c-0.06,0.11-0.14,0.24-0.2,0.37c-0.09,0.2-0.07,0.08-0.26,0.63c-0.13,0.66-0.24,0.35-0.21,1.84c0.19,1.71,1.29,3.21,3.23,3.76
		c0.86,0.25,1.86,0.08,1.96,0.05c0.69-0.16,0.78-0.24,1.04-0.33c0.31-0.14,0.5-0.25,0.63-0.33c0.29-0.17,0.47-0.29,0.64-0.41
		c0.68-0.47,1.19-0.86,1.73-1.27l3.05-2.4l5.95-4.76l11.88-9.46c1.82-1.45,3.67-2.87,5.51-4.28c0.85,1.14,1.72,2.27,2.61,3.38
		c2.44,2.93,4.93,5.81,7.92,8.55c1.53,1.35,3.17,2.68,5.3,3.83c1.05,0.57,2.32,1.08,3.64,1.36c1.26,0.26,2.45,0.37,3.69,0.34
		c1.22-0.03,2.38-0.2,3.38-0.39c0.99-0.19,1.9-0.42,2.85-0.63c1.87-0.45,3.71-0.98,5.54-1.54c3.64-1.15,7.18-2.49,10.65-3.98
		c3.47-1.49,6.85-3.13,10.15-5.05c1.02-0.59,2.02-1.2,3.03-1.81c-0.4,1.01-0.8,2.09-0.97,3.58c-0.08,0.8-0.09,1.74,0.22,2.86
		c0.31,1.12,1.12,2.32,2.1,3.03c0.98,0.73,1.94,1.02,2.73,1.18c0.8,0.16,1.49,0.18,2.13,0.18c1.26-0.03,2.33-0.19,3.35-0.37
		c1.99-0.36,3.9-0.8,5.82-1.35c0.98-0.28,1.85-0.55,2.96-0.94l0.33-0.13l0.16-0.07l0.33-0.14l0.65-0.29l1.3-0.58l5.16-2.37
		c3.43-1.58,6.84-3.24,10.18-4.85c0.57-0.27,1.14-0.54,1.7-0.8c-0.03,0.07-0.05,0.14-0.08,0.22c-0.15,0.46-0.28,1.01-0.36,1.61
		c-0.06,0.65-0.09,1.34,0.09,2.18c0.17,0.82,0.53,1.69,1.1,2.43c0.58,0.76,1.32,1.32,1.97,1.67c1.33,0.71,2.34,0.86,3.24,1.01
		c1.79,0.24,3.22,0.12,4.64,0.02c1.4-0.13,2.75-0.37,4.11-0.63c2.71-0.56,5.36-1.42,7.86-2.46c2.51-1.03,4.83-2.24,7.05-3.42
		c1.22-0.64,2.45-1.29,3.67-1.95c0.36,0.55,0.78,1.01,1.19,1.37c0.8,0.69,1.59,1.1,2.36,1.43c1.54,0.66,2.99,0.96,4.45,1.15
		c1.44,0.19,2.99,0.2,4.42,0.06c2.82-0.28,5.48-0.95,8.07-1.85c1.79-0.64,3.53-1.42,5.22-2.29c-0.04,0.59-0.04,1.25,0.12,2.04
		c0.13,0.67,0.45,1.47,0.93,2.15c0.48,0.68,1.14,1.25,1.8,1.61c1.34,0.73,2.44,0.82,3.36,0.87c0.92,0.03,1.71-0.04,2.45-0.13
		c1.45-0.23,2.89-0.47,4.27-0.93c2.78-0.85,5.35-2.15,7.65-3.64c2.29-1.51,4.35-3.16,6.28-4.78c0.96-0.8,1.9-1.59,2.83-2.33
		c0.79,0.81,1.65,1.28,2.4,1.59c1.65,0.66,3.01,0.81,4.3,1c2.82,0.4,5.64,0.27,8.39-0.32c0.7-0.15,1.38-0.36,1.97-0.54l1.84-0.57
		c1.23-0.38,2.43-0.82,3.63-1.25c4.79-1.78,9.45-3.83,13.9-6.3c0.19-0.11,0.3-0.34,0.25-0.56c-0.06-0.28-0.34-0.45-0.62-0.39
		c-4.95,1.1-9.81,2.32-14.67,3.38l-3.64,0.77l-1.82,0.36c-0.63,0.12-1.17,0.22-1.71,0.28c-2.21,0.29-4.49,0.19-6.63-0.23
		c-0.9-0.18-1.77-0.37-2.44-0.58c0.12-0.06,0.24-0.11,0.36-0.17c1.41-0.54,2.83-1.32,4.06-2.27c1.26-0.98,2.28-2.06,3.21-3.25
		c0.47-0.61,0.91-1.22,1.33-2.04c0.21-0.44,0.44-0.85,0.63-1.74c0.02-0.13,0.04-0.27,0.05-0.41c0.01-0.11,0.02-0.28,0.01-0.55
		c-0.02-0.23-0.05-0.47-0.11-0.69c-0.08-0.29-0.25-0.7-0.46-1.01c-0.41-0.63-1.02-1.03-1.68-1.29c-0.4-0.13-0.73-0.17-1.1-0.2
		c-1,0.01-1.51,0.19-1.96,0.34c-0.47,0.16-0.83,0.33-1.21,0.5c-0.73,0.35-1.36,0.74-1.98,1.15c-1.22,0.83-2.34,1.74-3.37,2.79
		c-0.5,0.5-0.96,1.03-1.41,1.59l-0.01-0.03c0,0-0.05,0.08-0.15,0.24c-0.14,0.18-0.28,0.37-0.42,0.55c-0.61,0.75-1.79,2.01-3.87,3.65
		c-1.52,1.05-2.91,2.14-4.25,3.2c-3.91,3.13-7.55,5.96-11.62,7.24c-1,0.35-2.05,0.53-3.08,0.72c-0.28,0.03-0.55,0.05-0.79,0.06
		c0.21-0.71,0.58-1.61,1.02-2.48c2.06-4.09,4.97-7.89,8.14-11.11l0.5-0.5c0.87-0.78,1.76-1.55,2.66-2.29
		c1.87-1.55,3.8-3.01,5.78-4.49c1.98-1.5,3.84-2.74,6.01-4.09c2.19-1.38,4.34-2.87,6.41-4.36c1-0.74,1.91-1.39,2.89-2.01
		c0.99-0.63,1.95-1.19,2.98-1.72c1.05-0.54,2.23-1.11,3.38-1.72c1.15-0.61,2.28-1.23,3.4-1.87c2.23-1.28,4.42-2.56,6.58-3.93
		c4.36-2.73,8.55-5.67,12.63-8.7c2.04-1.51,4.06-3.04,6.07-4.57c2-1.56,3.98-3,6.04-4.71c3.99-3.37,7.68-7.05,10.89-11.17
		c1.62-2.04,3.1-4.19,4.48-6.44c0.34-0.57,0.67-1.16,0.99-1.8c0.32-0.64,0.63-1.3,0.88-2.16c0.11-0.46,0.23-0.91,0.21-1.62
		C699.62,24.25,699.58,23.87,699.39,23.39z M509.2,110.62c-0.1-0.03-0.07-0.06,0.09,0.02C509.27,110.63,509.22,110.63,509.2,110.62z
		 M693.69,27.87c-1.26,2.03-2.65,4.03-4.17,5.91c-1.51,1.89-3.19,3.66-4.93,5.35c-1.75,1.69-3.59,3.28-5.53,4.72
		c-1.89,1.41-4.05,2.84-6.09,4.27c-2.07,1.42-4.13,2.83-6.21,4.2c-4.16,2.74-8.37,5.36-12.67,7.73c-2.17,1.19-4.35,2.41-6.53,3.54
		c-1.03,0.54-2.06,1.05-3.09,1.55c5.08-4.76,10.17-9.48,15.33-14.11c3.72-3.33,7.49-6.58,11.34-9.73c3.88-3.11,7.84-6.09,11.93-8.84
		c1.03-0.67,2.06-1.35,3.11-1.99l3.18-1.84c1.07-0.59,2.14-1.15,3.21-1.64c0.69-0.31,1.4-0.6,2.05-0.81
		C694.35,26.73,694.03,27.31,693.69,27.87z"/>
</g>
<g>
	<path class="st0" d="M318.4,208.7l-10.18,27.26c-0.76,2-1.85,3.01-3.28,3.01c-1.45,0-2.56-1-3.31-3.01l-10.18-27.26l2.78-0.01
		l9.62,26.01c0.35,0.92,0.7,1.38,1.05,1.38c0.43,0,0.81-0.45,1.14-1.34l9.63-26.04L318.4,208.7z"/>
	<path class="st0" d="M351.12,223.03c0,0.53-0.05,0.98-0.15,1.35h-26.99c0.2,3.65,1.44,6.58,3.71,8.79s5.22,3.32,8.86,3.32
		c1.9,0,3.83-0.32,5.8-0.95c2.21-0.7,3.88-1.65,5.03-2.85l1.9,1.81c-2.86,2.94-7.1,4.42-12.73,4.42c-4.54,0-8.22-1.43-11.06-4.28
		c-2.83-2.85-4.25-6.55-4.25-11.09c0-4.46,1.39-8.14,4.17-11.04c2.78-2.9,6.39-4.36,10.83-4.36c4.31,0,7.87,1.4,10.67,4.21
		C349.72,215.16,351.12,218.72,351.12,223.03z M348.39,221.95c-0.33-3.42-1.58-6.18-3.77-8.3c-2.19-2.12-4.99-3.17-8.4-3.17
		c-3.41,0-6.23,1.06-8.43,3.17c-2.21,2.12-3.48,4.88-3.8,8.3H348.39z"/>
	<path class="st0" d="M383.78,194.56v43.79h-2.58v-5.52c-1.6,2.25-3.84,3.94-6.75,5.06c-1.74,0.67-3.57,1.01-5.49,1.01
		c-4.52,0-8.15-1.43-10.89-4.28c-2.74-2.85-4.11-6.55-4.11-11.09c0-4.62,1.32-8.32,3.95-11.1c2.67-2.86,6.31-4.29,10.91-4.29
		c5.25,0,9.37,2.19,12.38,6.56v-20.15H383.78z M381.21,229.06v-4.02c0-4.15-0.98-7.53-2.94-10.15c-2.18-2.94-5.28-4.42-9.28-4.42
		c-3.8,0-6.81,1.23-9.04,3.68c-2.17,2.37-3.25,5.48-3.25,9.32c0,3.88,1.06,7,3.19,9.35c2.23,2.43,5.26,3.65,9.1,3.65
		c1.96,0,3.79-0.42,5.48-1.26C377.41,233.78,379.65,231.72,381.21,229.06z"/>
	<path class="st0" d="M416.47,194.56v43.79h-2.58v-5.52c-1.59,2.25-3.84,3.94-6.75,5.06c-1.74,0.67-3.57,1.01-5.49,1.01
		c-4.52,0-8.15-1.43-10.89-4.28c-2.74-2.85-4.11-6.55-4.11-11.09c0-4.62,1.32-8.32,3.95-11.1c2.67-2.86,6.31-4.29,10.91-4.29
		c5.25,0,9.37,2.19,12.38,6.56v-20.15H416.47z M413.9,229.06v-4.02c0-4.15-0.98-7.53-2.94-10.15c-2.18-2.94-5.28-4.42-9.28-4.42
		c-3.8,0-6.81,1.23-9.04,3.68c-2.17,2.37-3.25,5.48-3.25,9.32c0,3.88,1.06,7,3.19,9.35c2.23,2.43,5.26,3.65,9.1,3.65
		c1.96,0,3.79-0.42,5.48-1.26C410.1,233.78,412.35,231.72,413.9,229.06z"/>
	<path class="st0" d="M456.22,197.45l-3.19-0.61c-0.63-0.12-1.27-0.18-1.9-0.18c-2.33,0-4.1,0.86-5.31,2.58
		c-1.06,1.49-1.59,3.45-1.59,5.86v3.62h9.54v2.42h-9.54v27.23h-2.51v-33.55c0-3.03,0.77-5.51,2.3-7.45
		c1.66-2.13,3.97-3.19,6.93-3.19c0.84,0,1.68,0.09,2.51,0.28l2.76,0.61V197.45z"/>
	<path class="st0" d="M487.26,223.03c0,0.53-0.05,0.98-0.15,1.35h-26.99c0.2,3.65,1.44,6.58,3.71,8.79s5.22,3.32,8.86,3.32
		c1.9,0,3.83-0.32,5.8-0.95c2.21-0.7,3.88-1.65,5.03-2.85l1.9,1.81c-2.86,2.94-7.11,4.42-12.73,4.42c-4.54,0-8.22-1.43-11.06-4.28
		c-2.83-2.85-4.25-6.55-4.25-11.09c0-4.46,1.39-8.14,4.17-11.04s6.39-4.36,10.83-4.36c4.31,0,7.87,1.4,10.67,4.21
		C485.86,215.16,487.26,218.72,487.26,223.03z M484.53,221.95c-0.33-3.42-1.58-6.18-3.77-8.3c-2.19-2.12-4.99-3.17-8.4-3.17
		c-3.41,0-6.23,1.06-8.43,3.17c-2.21,2.12-3.48,4.88-3.8,8.3H484.53z"/>
	<path class="st0" d="M492.68,238.36h-2.58v-43.92h2.58V238.36z"/>
	<path class="st0" d="M547.7,238.36h-2.58v-5.52c-1.62,2.25-3.86,3.94-6.75,5.06c-1.74,0.67-3.57,1.01-5.49,1.01
		c-4.52,0-8.15-1.43-10.89-4.28c-2.74-2.85-4.11-6.55-4.11-11.09c0-4.62,1.32-8.32,3.96-11.1c2.68-2.86,6.32-4.29,10.92-4.29
		c5.25,0,9.37,2.19,12.36,6.56v-6.04h2.58V238.36z M545.12,229.06v-4.02c0-4.15-0.98-7.53-2.94-10.15
		c-2.18-2.94-5.28-4.42-9.28-4.42c-3.8,0-6.81,1.23-9.04,3.68c-2.17,2.37-3.25,5.48-3.25,9.32c0,3.91,1.06,7.02,3.19,9.35
		c2.21,2.43,5.24,3.65,9.1,3.65c1.96,0,3.79-0.42,5.48-1.26C541.33,233.78,543.57,231.72,545.12,229.06z"/>
	<path class="st0" d="M589.07,211.52l-0.18-0.03c0.2,0-0.95-0.14-3.47-0.42c-2.84-0.02-5.25,1.23-7.21,3.75
		c-1.86,2.39-2.79,5.82-2.79,10.28v13.26h-2.51V208.7h2.51v5.8c2.39-3.95,5.85-5.92,10.37-5.92c0.35,0.04,1.44,0.19,3.28,0.46
		V211.52z"/>
	<path class="st0" d="M595.63,200.36c0,1.25-0.63,1.87-1.9,1.87c-1.21,0-1.81-0.62-1.81-1.87c0-1.21,0.6-1.81,1.81-1.81
		C595,198.55,595.63,199.15,595.63,200.36z M595.05,238.36h-2.58V208.7h2.58V238.36z"/>
	<path class="st0" d="M609.1,211.12h-8.04v21.19c0,2.41,0.86,3.62,2.58,3.62h1.78v2.42h-1.32c-3.74,0-5.61-1.92-5.61-5.77V200.3
		h2.58v8.4h8.04V211.12z"/>
	<path class="st0" d="M651.54,238.36h-2.58V219.4c0-2.6-0.73-4.71-2.18-6.35c-1.51-1.72-3.55-2.58-6.1-2.58
		c-2.58,0-4.62,0.86-6.13,2.58c-1.45,1.64-2.18,3.75-2.18,6.35v18.95h-2.51V219.4c0-2.6-0.73-4.71-2.18-6.35
		c-1.51-1.72-3.55-2.58-6.1-2.58c-2.43,0-4.42,0.82-5.95,2.45c-1.21,1.29-1.94,2.86-2.21,4.72v20.7h-2.64V220.2
		c0-0.18,0-0.44,0-0.78c0-0.34,0-0.6,0-0.78v-9.94h2.64v3c1.96-2.37,4.72-3.56,8.28-3.56c4.07,0,7.21,1.92,9.42,5.77
		c2.31-3.84,5.46-5.77,9.45-5.77c3.54,0,6.28,1.15,8.22,3.44c1.84,2.15,2.76,5.02,2.76,8.62V238.36z"/>
	<path class="st0" d="M678.5,225.48c0,3.97-1,7.15-3.01,9.54c-2.15,2.6-5.16,3.89-9.05,3.89c-3.93,0-6.95-1.29-9.08-3.86
		c-1.98-2.37-2.97-5.56-2.97-9.57V208.7h2.51v17.6c0,3.01,0.83,5.45,2.48,7.33c1.74,1.98,4.09,2.97,7.05,2.97
		c2.92,0,5.25-1,6.99-3.01c1.66-1.9,2.48-4.33,2.48-7.3v-17.6h2.58V225.48z"/>
	<path class="st0" d="M704.04,230.75c0,5.07-3.85,7.61-11.56,7.61h-3.01c-3.7,0-6.41-1.08-8.13-3.25l2.3-1.38
		c1.41,1.47,3.35,2.21,5.83,2.21h4.88c4.74,0,7.11-1.66,7.11-4.98c0-2.85-2.26-4.9-6.78-6.15l-5.74-1.59
		c-4.93-1.37-7.39-3.9-7.39-7.58c0-4.62,3.12-6.93,9.35-6.93h2.88h1.69c3.74,0,6.44,1.04,8.1,3.11l-2.3,1.37
		c-1.35-1.37-3.37-2.05-6.07-2.05h-5.24c-3.88,0-5.83,1.55-5.83,4.65c0,2.35,2,4.08,6.01,5.2l5.98,1.68
		C701.41,224.15,704.04,226.85,704.04,230.75z"/>
	<path class="st0" d="M717.51,211.12h-8.04v21.19c0,2.41,0.86,3.62,2.58,3.62h1.78v2.42h-1.32c-3.74,0-5.61-1.92-5.61-5.77V200.3
		h2.58v8.4h8.04V211.12z"/>
</g>
</svg>
