<svg width="31" height="31" viewBox="0 0 31 31" fill="none" xmlns="http://www.w3.org/2000/svg">
<path d="M9.6482 0H0V1.07199H9.6482V0Z" transform="translate(10.6757 11.5473)" fill="black"/>
<path d="M9.6482 0H0V1.07199H9.6482V0Z" transform="translate(10.6757 16.3034)" fill="black"/>
<path d="M9.6482 0H0V1.07199H9.6482V0Z" transform="translate(10.6757 13.9253)" fill="black"/>
<path d="M15.4996 0C6.9395 0 0 6.93983 0 15.4998C0 24.0598 6.9395 31 15.4996 31C24.0597 31 31 24.0598 31 15.4998C30.9999 6.93983 24.0597 0 15.4996 0ZM19.1879 6.67178L22.4447 9.63428H19.1879V6.67178ZM17.6469 22.1731V23.8688V24.3281H10.4383C9.39792 24.3281 8.55502 23.485 8.55502 22.4448V8.55505C8.55502 7.51489 9.39813 6.67178 10.4383 6.67178H18.3835V10.4383H22.4444V18.6806H21.1395H20.0675V18.6816H10.6757V19.7536H20.0678V21.0596H10.6757V22.1316H17.6469V22.1731ZM25.2558 23.8689H22.8352V26.2895H21.1398V23.8689H18.7189V22.1732H21.1398V19.7526H22.8352V22.1732H25.2558C25.2558 22.1733 25.2558 23.8689 25.2558 23.8689Z" fill="black"/>
</svg>
