<svg width="21" height="21" viewBox="0 0 21 21" fill="none" xmlns="http://www.w3.org/2000/svg">
<path d="M10.4997 0C4.70095 0 0 4.70127 0 10.4998C0 16.2986 4.70095 21 10.4997 21C16.2985 21 21 16.2986 21 10.4998C21 4.70099 16.2985 0 10.4997 0ZM6.32223 14.3124C5.92134 14.3124 5.59696 13.988 5.59696 13.5869C5.59696 13.1862 5.92141 12.8618 6.32223 12.8618C6.72292 12.8618 7.04751 13.1862 7.04751 13.5869C7.04751 13.988 6.72292 14.3124 6.32223 14.3124ZM6.32223 11.2253C5.92134 11.2253 5.59696 10.9008 5.59696 10.4996C5.59696 10.0989 5.92141 9.77445 6.32223 9.77445C6.72292 9.77445 7.04751 10.0989 7.04751 10.4996C7.04751 10.9009 6.72292 11.2253 6.32223 11.2253ZM6.32223 8.1382C5.92134 8.1382 5.59696 7.81375 5.59696 7.41272C5.59696 7.01204 5.92141 6.68759 6.32223 6.68759C6.72292 6.68759 7.04751 7.01204 7.04751 7.41272C7.04751 7.81375 6.72292 8.1382 6.32223 8.1382ZM15.4031 14.267H8.60306C8.20203 14.267 7.87687 13.9418 7.87687 13.5408C7.87687 13.1398 8.20203 12.8146 8.60306 12.8146H15.4031C15.8041 12.8146 16.1293 13.1398 16.1293 13.5408C16.1293 13.9418 15.8041 14.267 15.4031 14.267ZM15.4031 11.2034H8.60306C8.20203 11.2034 7.87687 10.8782 7.87687 10.4772C7.87687 10.0761 8.20203 9.751 8.60306 9.751H15.4031C15.8041 9.751 16.1293 10.0761 16.1293 10.4772C16.1293 10.8781 15.8041 11.2034 15.4031 11.2034ZM15.4031 8.13967H8.60306C8.20203 8.13967 7.87687 7.81452 7.87687 7.41349C7.87687 7.01246 8.20203 6.68731 8.60306 6.68731H15.4031C15.8041 6.68731 16.1293 7.01246 16.1293 7.41349C16.1293 7.81452 15.8041 8.13967 15.4031 8.13967Z" fill="#EB5757"/>
</svg>
