<?xml version="1.0" encoding="utf-8"?>
<!-- Generator: Adobe Illustrator 22.1.0, SVG Export Plug-In . SVG Version: 6.00 Build 0)  -->
<svg version="1.1" id="Layer_1" xmlns="http://www.w3.org/2000/svg" xmlns:xlink="http://www.w3.org/1999/xlink" x="0px" y="0px"
	 viewBox="0 0 512 512" style="enable-background:new 0 0 512 512;" xml:space="preserve">
<style type="text/css">
	.st0{fill:#D80027;}
</style>
<g>
	<path class="st0" d="M256,0C114.6,0,0,114.6,0,256s114.6,256,256,256s256-114.6,256-256C512,114.6,397.4,0,256,0z M403.5,258.7v10
		v107.8c0,5.9-4.8,10.7-10.7,10.7h-17.3h-1h-7.2h-60H120.7v0c-6.8,0-12.3-5.5-12.3-12.3V137.1c0-6.8,5.5-12.3,12.3-12.3h270.5
		c6.8,0,12.3,5.5,12.3,12.3V258.7z"/>
	<path class="st0" d="M137.1,153.3v158.8h13.6l54.8-85.5l36.6,57.1l18.2,28.4h15.8L250,271.4l17-26.5l43.1,67.2h17.4h47.2v-43.4v-10
		V153.3H137.1z M328.3,232c-14,0-25.4-11.4-25.4-25.4s11.4-25.4,25.4-25.4s25.4,11.4,25.4,25.4C353.7,220.6,342.3,232,328.3,232z"/>
</g>
</svg>
