<svg width="107" height="139" viewBox="0 0 107 139" fill="none" xmlns="http://www.w3.org/2000/svg">
<path d="M11.392 -5.12621e-06L22.6995 1.17582V7.72689L28.2689 13.3541L21.7713 30.7396L15.5268 41.742L15.8644 46.5293H17.974L19.8304 49.9728L10.5481 52.2405L8.69164 47.0332L6.6664 52.9124H3.37539V46.1093L7.51025 35.3589L0.506308 18.5613L1.6877 13.0181L0 2.93957L11.392 -5.12621e-06Z" transform="translate(39.4077 86.0875)" fill="#291717"/>
<path d="M5.23186 12.1783L6.07571 23.7686L9.02918 28.8079L3.71293 33.0072L2.57522e-06 34.0151V37.5426H9.87303L17.0457 34.939V27.2961L19.1554 34.0151L24.6404 35.5269L27.7626 33.8471V30.4876L23.9653 29.0598L21.265 23.5166L29.9566 1.02524e-05L17.2989 9.23868L5.23186 12.1783Z" transform="translate(68.7737 101.457)" fill="#2C1B19"/>
<path d="M2.57522e-06 36.1148L6.49763 37.1227L12.8265 32.9233L24.8935 29.9837L37.5513 20.745L38.5639 11.0864L25.3155 1.51177L12.8265 0L15.5268 6.55105L12.4046 17.4695L6.49763 18.7293L2.57522e-06 36.1148Z" transform="translate(61.179 80.7123)" fill="#84977A"/>
<path d="M24.4775 20.493L22.1147 20.661C22.1147 20.661 -0.416072 12.3462 0.00585278 12.3462C0.427777 12.3462 8.44434 12.3462 8.44434 12.3462L21.6928 0L57.3876 2.0997L60.0879 8.65074L56.9656 19.5692L51.0587 20.745L45.4893 15.2018V8.56678L34.1817 7.47492L22.7898 10.4145L24.4775 20.493Z" transform="translate(16.618 78.6127)" fill="#64805B"/>
<path d="M42.7831 27.2961L33.332 28.2199L36.2011 18.6453L28.6909 17.6375L12.5733 24.1045L19.9992 17.1335L-6.43805e-07 8.98671L1.60331 2.51963L8.60726 -1.02524e-05L16.6238 6.63505L38.7327 14.9499L41.0954 14.7819L39.914 20.3251L42.7831 27.2961Z" transform="translate(0 84.3239)" fill="#84977A"/>
<path d="M-2.57522e-06 2.26768L1.097 7.39093L8.01656 4.03141L4.64116 15.9577L-2.57522e-06 19.0653L8.52287 22.9287L11.8983 16.3776V3.19153L18.5647 3.35952L17.8052 0H9.36672L-2.57522e-06 2.26768Z" transform="translate(44.2177 47.957)" fill="#299D48"/>
<path d="M4.13486 11.6743L-6.43805e-07 5.12622e-06L11.5607 4.70333L4.13486 11.6743Z" transform="translate(8.43849 96.754)" fill="#125A2E"/>
<path d="M4.64117 10.5825L-6.43805e-07 -1.02524e-05L7.51025 1.00785L4.64117 10.5825Z" transform="translate(28.6908 101.961)" fill="#10582D"/>
<path d="M98.1396 43.8417L93.9204 32.7553L83.7942 16.7976L69.6175 5.03927L60.4196 0L61.179 3.35952L54.5126 3.19153V16.3776L51.1372 22.9287L42.6144 19.0653L47.2555 15.9577L50.6309 4.03141L43.7114 7.39093L42.6144 2.26768L32.3194 10.3305L12.6577 23.5166L6.43805e-07 38.8864L7.00394 36.3668L15.0205 43.0018H23.459L36.7074 30.6556L72.4022 32.7553L84.8912 34.2671L98.1396 43.8417Z" transform="translate(1.60333 47.957)" fill="#125A2E"/>
<path d="M27.2563 25.7003L28.8596 33.9311L19.6617 28.8918H11.2232L1.85646 31.1595L0.843849 24.6924H5.73817L8.26972 21.7529V17.1335L4.30363 14.7819L0 15.1178L0.928232 5.45922L9.11357 2.51964L11.392 5.12622e-06H17.5521L19.4929 2.85559L22.6151 2.51964L24.2185 4.36736L34.429 5.12327L38.4795 7.30694L47.5087 6.71904L54.0063 2.26766L57.3817 3.52748L57.9724 5.62718L53.4156 12.0103L39.3233 16.9655L33.9227 16.0417L28.1002 8.9867L25.5686 8.65075L26.6656 13.1861H20.4211L17.974 17.4695L20.4211 21.1649L30.7161 21.6689L27.2563 25.7003Z" transform="translate(42.3612 19.0653)" fill="#93C395"/>
<path d="M15.1893 13.774L15.9487 7.39095L10.1262 0.335941L7.59464 -5.12622e-06L8.69164 4.53534H2.44716L2.57522e-06 8.81873L2.44716 12.5142L12.7421 13.0181L15.1893 13.774Z" transform="translate(60.3352 27.7159)" fill="#D9E9D8"/>
<path d="M1.43454 0.335957L5.73817 1.02524e-05L9.70426 2.35166V6.971L7.17271 9.91057H2.27839L2.57522e-06 6.971L1.43454 0.335957Z" transform="translate(40.9267 33.8472)" fill="#DAE8D8"/>
<path d="M2.57522e-06 14.2779L3.54416 14.9499L4.9787 19.4852L16.0331 23.9365H23.3746L30.7161 14.6139L31.4756 4.53536L27.4251 -1.02524e-05L20.2524 3.86344L17.5521 9.23866L12.9109 6.46707L6.16009 8.81872L0.759461 7.89487L2.57522e-06 14.2779Z" transform="translate(75.5244 27.2122)" fill="#C6CDC4"/>
<path d="M4.55678 -1.02524e-05L7.17271 2.51963L2.57522e-06 6.38308L4.55678 -1.02524e-05Z" transform="translate(95.7768 24.6925)" fill="#384939"/>
<path d="M-1.28761e-06 2.60362L4.64117 5.37522L7.34148 -5.12621e-06L-1.28761e-06 2.60362Z" transform="translate(88.4353 31.0754)" fill="#383132"/>
<path d="M9.4511 1.4278L6.6664 7.22296L5.48502 15.5378L1.60331 12.2622L2.57522e-06 4.03143L3.45978 -5.12622e-06L5.90694 0.755881L9.4511 1.4278Z" transform="translate(69.6175 40.7343)" fill="#3E453E"/>
<path d="M6.16009 1.02524e-05L4.05047 4.28337L2.57522e-06 2.09971L6.16009 1.02524e-05Z" transform="translate(76.7902 22.0889)" fill="#3C3F3B"/>
<path d="M13.4172 2.60362L12.4046 -1.02524e-05L7.59464 3.35951H4.21924L2.10962 2.01572L-1.28761e-06 6.29908L9.02918 5.71118L13.4172 2.60362Z" transform="translate(80.8407 20.0731)" fill="#9AA899"/>
<path d="M16.4551 8.9867L21.0118 17.3015H9.19795L2.36277 16.0417L2.57522e-06 14.11L1.18139 5.79517L3.96609 5.12622e-06L5.40063 4.53535L16.4551 8.9867Z" transform="translate(75.1025 42.162)" fill="#9BAB98"/>
<path d="M10.6325 -5.12621e-06V7.39095L14.1767 19.7372L4.55678 12.4302L2.57522e-06 4.1154H7.34148L10.6325 -5.12621e-06Z" transform="translate(91.5576 47.0332)" fill="#445445"/>
<path d="M-1.28761e-06 1.02524e-05L6.83517 1.25983H18.6491L23.5434 4.95529L23.9653 11.0024L18.0584 22.5088L7.93218 6.55106L-1.28761e-06 1.02524e-05Z" transform="translate(77.4653 58.2036)" fill="#262020"/>
<path d="M12.9953 12.4302V8.90272L15.5268 6.55105L15.1893 3.27552L12.4046 4.45135L11.8983 0H2.44716L0.590693 1.17583L1.26577 5.54321L1.28761e-06 8.48278L1.43454 10.1625L2.70031 14.4459L4.80994 15.7897H8.18533L12.9953 12.4302Z" transform="translate(80.25 7.64282)" fill="#D9E9D8"/>
<path d="M21.4338 5.87914L19.4929 8.81872L19.1554 5.5432L16.3707 6.71902L15.8644 2.26767H6.41325L4.55678 3.4435L5.23186 7.81088L1.68769 6.21512L-2.57522e-06 3.35951L0.506312 1.25981L4.80994 -1.02524e-05L15.5268 0.503922L18.6491 1.84773L21.4338 4.36737V5.87914Z" transform="translate(76.2839 5.37524)" fill="#3F433E"/>
<path d="M13.8391 5.37522V7.22296L10.7169 5.87915L1.28761e-06 5.37522L1.60331 2.35167L5.90694 -5.12622e-06L11.5607 1.67975L13.8391 5.37522Z" transform="translate(81.0938)" fill="#212020"/>
<path d="M11.2232 13.1021L15.2737 9.91056L14.5142 7.05498L15.78 4.70333L14.7674 0L10.6325 6.55105L5.40063 9.23867L0.421924 9.32266L0 10.5825H6.1601L8.10095 13.4381L11.2232 13.1021Z" transform="translate(53.7532 8.48279)" fill="#D9EAD9"/>
<path d="M38.6483 4.28337L37.6356 7.39094L33.5008 13.942L28.2689 16.6296L23.2902 16.7136L22.362 14.4459L17.6364 18.9813L7.00394 21.5009L9.19795 25.2803L5.06309 26.6242V22.1728L1.28761e-06 22.5928L0.84385 18.2254L5.73817 20.997L12.8265 18.6453L16.7926 17.3015L21.8557 10.0786L21.9401 3.10755L27.4251 0.503917L33.332 1.02524e-05L36.4543 2.85559L38.6483 4.28337Z" transform="translate(30.8848 1.09192)" fill="#3E443F"/>
</svg>
