<svg width="136" height="144" viewBox="0 0 136 144" fill="none" xmlns="http://www.w3.org/2000/svg">
<path d="M13.9111 11.304L14.7838 18.2406L8.16187 26.359L2.05331 20.1417V16.545L6.26618e-06 14.13L0.769994 -1.56805e-06L8.46987 0.924876L15.2971 6.21722L16.7344 7.50177L13.9111 11.304Z" transform="translate(74.8942 5.54919)" fill="#3F1C4D"/>
<path d="M15.1944 4.67576L14.5271 11.7665L7.69989 6.47413L6.26618e-06 5.54925L6.21123 -3.13611e-06L11.1905 0.770727L15.1944 4.67576Z" transform="translate(75.6642)" fill="#100C12"/>
<path d="M6.62189 -1.56805e-06L10.9338 0.873491L14.5784 5.65202L15.6051 20.1417L3.13309e-06 8.11836L6.62189 -1.56805e-06Z" transform="translate(83.056 23.7899)" fill="#B081B9"/>
<path d="M3.43928 1.90113L0 -1.56805e-06L0.615996 4.88129L3.43928 8.11835H9.54785L3.43928 1.90113Z" transform="translate(73.5081 23.7899)" fill="#B282BA"/>
<path d="M20.4817 4.52161L24.229 3.13611e-06L25.1529 1.6956L28.3356 3.13611e-06L29.8755 9.65981L31.2615 23.7899V31.3944H25.1529L9.75318 23.7899L5.80057 26.9755L0 24.3551L3.43928 11.7665H9.54785L25.1529 23.7899L24.1263 9.30014L20.4817 4.52161Z" transform="translate(73.5081 20.1417)" fill="#361844"/>
<path d="M4.61994 2.87739L6.26618e-06 3.13611e-06L2.92595 23.7899L7.80256 30.264L13.5518 33.1928L16.0671 28.7739L14.3218 26.4103L14.7838 22.5567L2.92595 9.76258L4.61994 2.87739Z" transform="translate(101.844 20.1417)" fill="#3F1C4D"/>
<path d="M23.0483 19.2682L24.8449 7.81006L18.685 -1.56805e-06H9.13719L2.00197 6.78242L5.59524 7.24486L0.20533 13.6162L3.28528 14.6953L3.13309e-06 18.3948L0.718655 25.2799L2.0533 27.3866L1.69397 32.2165L13.9624 38.5365L20.1737 38.8962L23.0483 39.9752L26.4876 27.3866L23.6643 24.1495L23.0483 19.2682Z" transform="translate(50.4599 4.52161)" fill="#1B1020"/>
<path d="M1.8993 4.8299L11.7038 0L11.3445 4.8299L23.613 11.1499L29.8242 11.5096L32.6988 12.5886L31.3642 15.0035L34.0848 20.0904L31.6208 24.6634L27.1549 20.5014L27.5656 25.3313L24.9989 20.6556L19.5064 14.9008L10.2665 14.0273L-6.26618e-06 9.71119L1.8993 4.8299Z" transform="translate(40.8093 31.9082)" fill="#3F1C4D"/>
<path d="M27.4629 16.2881L25.9229 7.60454L10.5232 -3.13611e-06L6.57055 3.18569L0 16.7505L12.5765 19.6793L27.4629 16.2881Z" transform="translate(72.7383 43.9316)" fill="#B081B9"/>
<path d="M28.0276 26.9756L29.2082 16.1853L35.7788 2.62049L29.9782 0L28.6435 2.41496L31.3642 7.50178L28.9002 12.0748L24.4343 7.91283L24.8449 12.7427L22.2783 8.06698L16.7857 2.31219L7.54587 1.43869L8.98319 12.4858L3.13309e-06 21.2208L10.4718 27.6949L19.4037 30.3668L28.0276 26.9756Z" transform="translate(43.53 44.4968)" fill="#200F26"/>
<path d="M42.298 3.13611e-06L51.9999 19.2169L67.9129 65.2551L65.3976 68.0811L59.4431 68.4408L58.0057 69.4171L55.0798 57.8047L51.4865 52.8721L51.1272 47.0145L37.5754 26.77L27.4116 21.9401L17.7611 31.7541L18.0177 36.6867L14.0138 41.4139V49.4295L11.7551 54.5677L10.6772 67.927L8.93186 68.2866L4.61993 69.4171L3.13309e-06 67.4131L2.00197 57.1367L1.18064 48.1449L4.56859 40.489L4.77392 30.7264L12.1658 20.1417L13.6545 11.2527L14.8351 0.462438L27.4116 3.39122L42.298 3.13611e-06Z" transform="translate(57.9031 60.2197)" fill="#200F26"/>
<path d="M17.9664 10.1222L15.5538 6.21722L6.77588 2.26081L5.95457 3.13611e-06L1.25323e-05 0.359668V3.54536L1.1293 7.96421L15.1431 11.5609L17.9664 10.1222Z" transform="translate(117.346 128.301)" fill="#82449A"/>
<path d="M15.1431 9.6598V4.11056L14.1165 0L9.80452 1.13041L8.46987 0.565205V3.54535L0.46199 9.6598L0 13.9759L10.1638 13.3079L15.1431 9.6598Z" transform="translate(52.7185 128.506)" fill="#6B3084"/>
<path d="M56.6711 25.2285L64.063 14.6439L65.5516 5.75478L56.9278 9.146L47.9959 6.47413L37.5241 -6.27221e-06L25.9743 17.7268L20.3277 31.6513L8.8292 42.9039L4.36326 55.1329L0 61.1445L4.15794 62.7888L6.7759 61.5556L16.5804 48.3504L23.8696 36.8923L44.454 18.0865L29.8755 34.837L28.5922 39.5127L15.8104 61.1445L18.6337 64.9468L35.9328 45.9355L37.5241 37.4575L56.6711 25.2285Z" transform="translate(6.00592 65.7175)" fill="#B081B9"/>
<path d="M10.5232 12.9483L15.6051 3.80227L12.7818 -6.27222e-06L-3.13309e-06 12.9483L4.1066 16.8019L10.5232 12.9483Z" transform="translate(9.03455 126.862)" fill="#4F2564"/>
<path d="M6.0059 -6.27222e-06L-6.26618e-06 10.4306L1.12932 15.6201H6.0059L9.03452 10.4306L10.1638 1.64422L6.0059 -6.27222e-06Z" transform="translate(0 126.862)" fill="#502564"/>
</svg>
