<svg width="109" height="139" viewBox="0 0 109 139" fill="none" xmlns="http://www.w3.org/2000/svg">
<path d="M13.6714 9.24894L14.9961 0L4.18619 0.265774L0 4.62448L1.27175 11.8535L5.82888 15.4681L9.59116 15.8933L13.6714 9.24894Z" transform="translate(54.3146 5.15601)" fill="#E16060"/>
<path d="M11.1279 -6.48863e-06L14.9961 5.15602L4.18619 5.4218L0 9.7805L1.21876 3.72083L5.45794 -6.48863e-06H11.1279Z" transform="translate(54.3146)" fill="#2B0F10"/>
<path d="M18.0695 1.91357L24.2693 11.8004V19.6673L29.1444 32.1587L11.8697 13.6608L6.72971 9.7805L-3.23424e-06 9.62103L8.47836 -6.48863e-06L13.0355 3.61453L16.7978 4.03977L18.0695 1.91357Z" transform="translate(47.1079 17.0095)" fill="#521414"/>
<path d="M40.9081 33.1686L40.5902 37.2616L47.4259 44.1717L53.0428 46.2447L50.5523 50.5503L53.0428 53.1017L48.8566 55.2811L47.7968 59.9055L42.4448 57.673L38.2056 48.3709L34.9733 45.66L27.8726 43.6933L27.0778 42.3644L32.6947 36.7832L25.5411 27.3216L17.4866 21.634L8.53136 5.90019L4.82207 5.31548L1.43073 6.4849L4.82207 3.24245L-3.23424e-06 -3.24432e-06L6.72971 0.159471L11.8697 4.03977L29.1444 22.5377L40.9081 33.1686Z" transform="translate(47.1079 26.6306)" fill="#E16060"/>
<path d="M2.22556 11.6409L3.23424e-06 1.16941L3.39135 -3.24432e-06L7.10063 0.584704L16.0559 16.3185L24.1104 22.0061L31.264 31.4677L25.6471 37.0489L10.8099 16.5843L6.88868 17.7537L2.22556 11.6409Z" transform="translate(48.5387 31.946)" fill="#501515"/>
<path d="M-3.23424e-06 -3.24432e-06L1.43073 6.4849L4.82207 3.24245L-3.23424e-06 -3.24432e-06Z" transform="translate(47.1079 26.6306)" fill="#561415"/>
<path d="M18.2815 15.2023L13.0885 17.5411L7.15362 15.9465C7.15362 15.9465 4.1332 13.1293 4.1332 12.8635C4.1332 12.5977 4.55713 9.78049 4.55713 9.78049L1.21876 7.38852L3.23424e-06 3.66768L1.90764 0L5.40495 0.956781L8.63733 3.66768L12.8765 12.9698L18.2815 15.2023Z" transform="translate(76.6232 71.3339)" fill="#8F1C1D"/>
<path d="M4.55712 -6.48863e-06L19.1293 3.61453L19.9242 4.94341L23.4745 5.90019L21.5668 9.56787L22.7856 13.2887L26.124 15.6807L25.7 18.7637L28.7205 21.8466L32.1648 32.6371C32.1648 32.6371 48.4857 64.4237 48.7506 64.53C49.0156 64.6363 53.9436 69.9518 53.9436 69.9518L46.684 70.4834L43.3986 67.6661L38.2586 68.8355L19.8182 37.2084L9.00826 17.2753L-3.23424e-06 31.7335L0.688874 18.0195L4.82207 19.7205L4.55712 -6.48863e-06Z" transform="translate(55.0564 65.3805)" fill="#2B0F10"/>
<path d="M19.0763 61.2344L19.8182 48.5835L20.507 34.8696L24.6402 36.5174L24.2163 16.8501L38.7885 20.4646L23.9514 3.24432e-06L20.0301 1.1694L19.8182 5.42179L15.2081 4.09292L3.92125 17.3816L-6.46848e-06 23.4413L9.80311 38.0057L4.23918 46.6168L10.8099 53.208L14.0423 48.4772L19.0763 61.2344Z" transform="translate(35.3972 48.5304)" fill="#911C1D"/>
<path d="M8.05789 15.8729L5.24943 2.58415C5.24943 2.58415 -0.15553 -0.339358 0.00343916 0.0327262C0.162409 0.40481 3.39478 7.95281 3.39478 7.95281L6.04427 10.3979L8.05789 15.8729Z" transform="translate(47.1575 120.469)" fill="#901C1D"/>
<path d="M-6.46848e-06 10.5778C0.264942 10.5778 6.35877 10.5778 6.35877 10.5778L8.74331 7.92007L6.88867 1.29773e-05L-6.46848e-06 10.5778Z" transform="translate(43.6106 128.422)" fill="#901C1D"/>
<path d="M14.1483 48.9025V53.7396L18.0695 63.9453L22.9446 56.4505L19.5532 48.5304L16.5328 30.192L12.0817 23.1755L17.6456 14.5644L7.84248 6.48863e-06L0.688861 17.86L0 24.4512L3.02042 27.3748L14.1483 48.9025Z" transform="translate(27.5547 71.9717)" fill="#E16060"/>
<path d="M12.2936 8.18586L6.2528 17.9132L4.45115 7.01644L-6.46848e-06 -6.48863e-06L6.57074 6.59121L9.80311 1.86041L12.2936 8.18586Z" transform="translate(39.6363 95.1472)" fill="#2B0F10"/>
<path d="M5.98784 29.3946L7.78951 26.2053L13.4064 27.2684L14.6782 17.4348L17.3277 13.9266L10.1211 0L0 22.4845L1.58969 23.5476L0 28.9694L5.98784 29.3946Z" transform="translate(24.3753 106.948)" fill="#2B0F10"/>
<path d="M50.6053 27.0027L48.5387 13.5545L44.9353 2.92352L39.6364 0L32.0588 4.25239L16.4268 19.2952L0 29.1289L19.7652 22.9098L34.4434 17.169L38.3116 10.2589L36.298 30.9893L39.3184 40.2914L50.6053 27.0027Z" transform="translate(0 25.6207)" fill="#E16060"/>
<path d="M12.6116 11.4283L18.3345 7.06959L19.7652 3.24432e-06L0 6.21911L4.29218 9.19579L13.6714 5.74072L12.6116 11.4283Z" transform="translate(0 48.5304)" fill="#8F1C1D"/>
</svg>
