<svg width="92" height="145" viewBox="0 0 92 145" fill="none" xmlns="http://www.w3.org/2000/svg">
<path d="M2.56662 15.6715L5.03059 13.6162L9.29119 12.9996L10.0612 10.8416H11.6525L12.3198 6.67966H10.8312L8.26454 1.02764L1.43731 1.56805e-06L-6.26618e-06 3.33983L3.13128 2.26081L5.85192 3.33983L7.34056 8.2725L4.20927 12.2289L2.56662 15.6715Z" transform="translate(50.9853)" fill="#CCB039"/>
<path d="M2.46395 2.87739L4.00393 2.36357L4.51726 1.07902L7.64854 -1.56805e-06L10.3692 1.07902L11.8578 6.01169L8.72653 9.96811L7.08388 13.4107L0.256663 10.9957L0 7.19348L2.46395 2.87739Z" transform="translate(46.468 2.26086)" fill="#DECA85"/>
<path d="M16.1697 4.21332L17.3504 2.41495L10.5232 3.13611e-06L6.7759 0.82211L0 7.34762L4.7226 4.98405L1.18064 9.04324L7.34054 5.49787L9.39384 2.15805L16.1697 4.21332Z" transform="translate(36.2016 13.2566)" fill="#CBAF39"/>
<path d="M14.9891 19.9876C14.9378 19.8334 17.9151 11.0471 17.9151 11.0471L16.3751 2.00389L9.59918 -3.13611e-06L7.54588 3.33983L0.20533 11.972L3.13309e-06 27.3352L7.59721 25.8451L11.2418 26.359L9.18852 15.9798H14.5784L14.9891 19.9876Z" transform="translate(35.9962 15.4659)" fill="#3F3618"/>
<path d="M22.2783 15.5687L22.0217 10.9444L27.7196 9.81396L31.3642 10.3278L29.3622 0H34.7521L35.1628 4.00779V14.5925L33.4688 25.5882L30.7995 30.0071L15.4511 38.8448L6.41656 42.0818L-6.26618e-06 31.1889L6.57057 27.9004L7.64855 33.7066L16.7344 33.3983L20.7897 32.0624L27.9249 27.438L29.7729 26.9242L30.7995 13.2052L27.4629 13.3593L22.2783 15.5687Z" transform="translate(15.8225 31.4458)" fill="#DECB86"/>
<path d="M28.9515 8.52941L12.8845 -3.13611e-06L11.1905 10.9957L8.52119 15.4146L6.26618e-06 20.2959L1.74531 24.2009L8.41854 24.8689L11.4985 18.703L18.5824 22.3512L21.149 15.7743L28.0789 13.9759L28.9515 8.52941Z" transform="translate(38.1008 46.0382)" fill="#CCB039"/>
<path d="M1.48865 2.36357L6.67322 0.154146L10.0098 6.27222e-06L8.98319 13.719L7.13523 14.2328L-6.26618e-06 18.8572L1.48865 2.36357Z" transform="translate(36.6122 44.6509)" fill="#CCB039"/>
<path d="M10.1638 3.90503L10.9852 9.86534L15.9644 5.49787L27.5142 1.54145L29.0542 -6.27222e-06H33.9821L37.2674 4.47023L31.1075 4.93267L23.7156 8.68356L10.6258 19.7821L6.05723 18.7031L3.13309e-06 6.42274L3.07995 0.256904L10.1638 3.90503Z" transform="translate(46.5193 64.4844)" fill="#DECA85"/>
<path d="M1.02666 2.77462L6.26617e-06 5.29234L1.53998 3.75088H6.46789L9.75318 8.22112L14.9378 7.45039L17.9664 5.49788L13.6544 1.13041L7.44322 1.64423L2.61795 0L6.26617e-06 0.8735L1.02666 2.77462Z" transform="translate(74.0336 60.7335)" fill="#4E421A"/>
<path d="M3.38794 7.03934L12.5765 8.37525L12.1145 4.57299L6.15991 0L6.26618e-06 0.462435L3.38794 7.03934Z" transform="translate(77.6269 68.9546)" fill="#4D4219"/>
<path d="M-6.26618e-06 8.32389L7.95654 5.85755L16.1697 6.57691L12.7818 -3.13611e-06L5.38991 3.7509L-6.26618e-06 8.32389Z" transform="translate(64.8451 69.417)" fill="#BEAF74"/>
<path d="M20.8923 19.3196V12.4345L18.7364 8.11835L19.8144 3.85365L13.2438 1.02764L9.85585 2.15805L5.28724 0L0 5.29234V14.4897L4.82525 22.5053V29.9043L16.5804 30.6751L23.459 28.0032L20.7383 24.7147L11.7038 27.9518L5.28724 17.0588L11.8578 13.7704L12.9358 19.5765L20.8923 19.3196Z" transform="translate(10.5353 45.5758)" fill="#C8AB2D"/>
<path d="M10.7285 9.60843L11.4471 17.0588L8.05921 18.1892L3.49061 16.0312L4.36327 14.4897L1.95063 11.7665L0 6.52551V2.67186L4.77392 -6.27221e-06L8.88052 2.31218L10.7285 9.60843Z" transform="translate(12.3319 29.5446)" fill="#DECA85"/>
<path d="M13.2438 9.24875L12.5251 10.893L10.6772 3.59673L6.57056 1.28454L1.79664 3.95641V7.81006L3.74727 13.051L1.18064 9.76257L0 5.49787L1.28331 2.26081L3.49061 -6.27222e-06L9.23985 0.822109L12.5251 3.54536L13.2438 9.24875Z" transform="translate(10.5353 28.2601)" fill="#665924"/>
<path d="M31.4155 0L36.0868 16.1853L38.2427 33.758L42.3493 56.9312L45.532 60.0141V64.7413L38.4481 68.338L36.2921 62.275L35.0088 50.714L24.3829 19.4224L11.7038 54.9787L12.0631 61.2473L6.67323 68.338L5.28724 66.8993L0.667317 66.9507L0 63.3026L2.0533 60.3738L10.6258 34.5801L12.7818 11.6637L11.3958 8.06698L12.7818 1.90114L24.5369 2.67187L31.4155 0Z" transform="translate(2.57874 73.5791)" fill="#302B17"/>
<path d="M11.1905 5.90893L10.5745 2.72324L7.08389 0L-3.13309e-06 3.59674L5.95457 6.67966L11.1905 5.90893Z" transform="translate(41.0268 138.32)" fill="#E0CE83"/>
<path d="M9.08586 1.43869L7.44321 4.52161H1.64264L-6.26618e-06 2.98015L3.07995 0.0513756L7.69987 6.2722e-06L9.08586 1.43869Z" transform="translate(0.166046 140.478)" fill="#E6D9A0"/>
</svg>
